<svg width="25" height="24" viewBox="0 0 25 24" fill="none" xmlns="http://www.w3.org/2000/svg">
<path d="M11.9165 18.25H9.6665C8.5665 18.25 7.6665 19.15 7.6665 20.25V20.5H6.6665C6.2565 20.5 5.9165 20.84 5.9165 21.25C5.9165 21.66 6.2565 22 6.6665 22H18.6665C19.0765 22 19.4165 21.66 19.4165 21.25C19.4165 20.84 19.0765 20.5 18.6665 20.5H17.6665V20.25C17.6665 19.15 16.7665 18.25 15.6665 18.25H13.4165V15.96C13.1665 15.99 12.9165 16 12.6665 16C12.4165 16 12.1665 15.99 11.9165 15.96V18.25Z" fill="#396939"/>
<path d="M19.1463 11.64C19.8063 11.39 20.3863 10.98 20.8463 10.52C21.7763 9.49 22.3863 8.26 22.3863 6.82C22.3863 5.38 21.2563 4.25 19.8163 4.25H19.2563C18.6063 2.92 17.2463 2 15.6663 2H9.66629C8.08629 2 6.72629 2.92 6.07629 4.25H5.51629C4.07629 4.25 2.94629 5.38 2.94629 6.82C2.94629 8.26 3.55629 9.49 4.48629 10.52C4.94629 10.98 5.52629 11.39 6.18629 11.64C7.22629 14.2 9.72629 16 12.6663 16C15.6063 16 18.1063 14.2 19.1463 11.64ZM15.5063 8.45L14.8863 9.21C14.7863 9.32 14.7163 9.54 14.7263 9.69L14.7863 10.67C14.8263 11.27 14.3963 11.58 13.8363 11.36L12.9263 11C12.7863 10.95 12.5463 10.95 12.4063 11L11.4963 11.36C10.9363 11.58 10.5063 11.27 10.5463 10.67L10.6063 9.69C10.6163 9.54 10.5463 9.32 10.4463 9.21L9.82629 8.45C9.43629 7.99 9.60629 7.48 10.1863 7.33L11.1363 7.09C11.2863 7.05 11.4663 6.91 11.5463 6.78L12.0763 5.96C12.4063 5.45 12.9263 5.45 13.2563 5.96L13.7863 6.78C13.8663 6.91 14.0463 7.05 14.1963 7.09L15.1463 7.33C15.7263 7.48 15.8963 7.99 15.5063 8.45Z" fill="#396939"/>
</svg>
