<svg width="25" height="24" viewBox="0 0 25 24" fill="none" xmlns="http://www.w3.org/2000/svg">
<path d="M18.1965 7.77C18.1265 7.76 18.0565 7.76 17.9865 7.77C16.4365 7.72 15.2065 6.45 15.2065 4.89C15.2065 3.3 16.4965 2 18.0965 2C19.6865 2 20.9865 3.29 20.9865 4.89C20.9765 6.45 19.7465 7.72 18.1965 7.77Z" fill="#396939"/>
<path d="M21.4566 14.6999C20.3366 15.4499 18.7666 15.7299 17.3166 15.5399C17.6966 14.7199 17.8966 13.8099 17.9066 12.8499C17.9066 11.8499 17.6866 10.8999 17.2666 10.0699C18.7466 9.86991 20.3166 10.1499 21.4466 10.8999C23.0266 11.9399 23.0266 13.6499 21.4566 14.6999Z" fill="#396939"/>
<path d="M7.10666 7.77C7.17666 7.76 7.24666 7.76 7.31666 7.77C8.86666 7.72 10.0967 6.45 10.0967 4.89C10.0967 3.29 8.80666 2 7.20666 2C5.61666 2 4.32666 3.29 4.32666 4.89C4.32666 6.45 5.55666 7.72 7.10666 7.77Z" fill="#396939"/>
<path d="M7.21662 12.8501C7.21662 13.8201 7.42662 14.7401 7.80662 15.5701C6.39662 15.7201 4.92662 15.4201 3.84662 14.7101C2.26662 13.6601 2.26662 11.9501 3.84662 10.9001C4.91662 10.1801 6.42662 9.8901 7.84662 10.0501C7.43662 10.8901 7.21662 11.8401 7.21662 12.8501Z" fill="#396939"/>
<path d="M12.7863 15.87C12.7063 15.86 12.6163 15.86 12.5263 15.87C10.6863 15.81 9.21631 14.3 9.21631 12.44C9.22631 10.54 10.7563 9 12.6663 9C14.5663 9 16.1063 10.54 16.1063 12.44C16.0963 14.3 14.6363 15.81 12.7863 15.87Z" fill="#396939"/>
<path d="M9.53631 17.9399C8.02631 18.9499 8.02631 20.6099 9.53631 21.6099C11.2563 22.7599 14.0763 22.7599 15.7963 21.6099C17.3063 20.5999 17.3063 18.9399 15.7963 17.9399C14.0863 16.7899 11.2663 16.7899 9.53631 17.9399Z" fill="#396939"/>
</svg>
