<svg width="24" height="24" viewBox="0 0 24 24" fill="none" xmlns="http://www.w3.org/2000/svg">
<g id="vuesax/bold/share">
<g id="vuesax/bold/share_2">
<g id="share">
<path id="Vector" d="M20.3601 12.7301C19.9901 12.7301 19.6801 12.4501 19.6401 12.0801C19.4001 9.88007 18.2201 7.90007 16.4001 6.64007C16.0701 6.41007 15.9901 5.96007 16.2201 5.63007C16.4501 5.30007 16.9001 5.22007 17.2301 5.45007C19.4001 6.96007 20.8001 9.32007 21.0901 11.9301C21.1301 12.3301 20.8401 12.6901 20.4401 12.7301C20.4101 12.7301 20.3901 12.7301 20.3601 12.7301Z" fill="#BE252A"/>
<path id="Vector_2" d="M3.7398 12.78C3.7198 12.78 3.6898 12.78 3.6698 12.78C3.2698 12.74 2.9798 12.38 3.0198 11.98C3.2898 9.36996 4.6698 7.00996 6.8198 5.48996C7.1398 5.25996 7.5998 5.33996 7.8298 5.65996C8.0598 5.98996 7.9798 6.43996 7.6598 6.66996C5.8598 7.94996 4.6898 9.92996 4.4698 12.12C4.4298 12.5 4.1098 12.78 3.7398 12.78Z" fill="#BE252A"/>
<path id="Vector_3" d="M15.9901 21.1001C14.7601 21.6901 13.4401 21.9901 12.0601 21.9901C10.6201 21.9901 9.2501 21.6701 7.9701 21.0201C7.6101 20.8501 7.4701 20.4101 7.6501 20.0501C7.8201 19.6901 8.2601 19.5501 8.6201 19.7201C9.2501 20.0401 9.9201 20.2601 10.6001 20.3901C11.5201 20.5701 12.4601 20.5801 13.3801 20.4201C14.0601 20.3001 14.7301 20.0901 15.3501 19.7901C15.7201 19.6201 16.1601 19.7601 16.3201 20.1301C16.5001 20.4901 16.3601 20.9301 15.9901 21.1001Z" fill="#BE252A"/>
<path id="Vector_4" d="M12.05 2.01001C10.5 2.01001 9.22998 3.27001 9.22998 4.83001C9.22998 6.39001 10.49 7.65001 12.05 7.65001C13.61 7.65001 14.87 6.39001 14.87 4.83001C14.87 3.27001 13.61 2.01001 12.05 2.01001Z" fill="#BE252A"/>
<path id="Vector_5" d="M5.04998 13.8701C3.49998 13.8701 2.22998 15.1301 2.22998 16.6901C2.22998 18.2501 3.48998 19.5101 5.04998 19.5101C6.60998 19.5101 7.86998 18.2501 7.86998 16.6901C7.86998 15.1301 6.59998 13.8701 5.04998 13.8701Z" fill="#BE252A"/>
<path id="Vector_6" d="M18.9499 13.8701C17.3999 13.8701 16.1299 15.1301 16.1299 16.6901C16.1299 18.2501 17.3899 19.5101 18.9499 19.5101C20.5099 19.5101 21.7699 18.2501 21.7699 16.6901C21.7699 15.1301 20.5099 13.8701 18.9499 13.8701Z" fill="#BE252A"/>
</g>
</g>
</g>
</svg>
