<svg width="20" height="20" viewBox="0 0 20 20" fill="none" xmlns="http://www.w3.org/2000/svg">
<path d="M12.4998 18.9584C12.2748 18.9584 12.0665 18.8334 11.9582 18.6417C11.8498 18.4417 11.8498 18.2084 11.9665 18.0084L12.8415 16.55C13.0165 16.2584 13.3998 16.1584 13.6998 16.3334C13.9998 16.5084 14.0915 16.8917 13.9165 17.1917L13.6915 17.5667C15.9915 17.025 17.7165 14.9584 17.7165 12.4917C17.7165 12.15 17.9998 11.8667 18.3415 11.8667C18.6832 11.8667 18.9665 12.15 18.9665 12.4917C18.9582 16.0584 16.0582 18.9584 12.4998 18.9584Z" fill="#396939"/>
<path d="M1.6665 8.12508C1.32484 8.12508 1.0415 7.84175 1.0415 7.50008C1.0415 3.94175 3.9415 1.04175 7.49984 1.04175C7.72484 1.04175 7.93317 1.16675 8.0415 1.35841C8.14984 1.55841 8.14984 1.79175 8.03317 1.99175L7.15817 3.45008C6.98317 3.74175 6.59984 3.84175 6.29984 3.65841C6.00817 3.48341 5.90817 3.10008 6.0915 2.80008L6.3165 2.42508C4.00817 2.96675 2.2915 5.03341 2.2915 7.50008C2.2915 7.84175 2.00817 8.12508 1.6665 8.12508Z" fill="#396939"/>
<path d="M13.6668 6.84172L10.5335 5.15005C10.2001 4.97505 9.80846 4.97505 9.47513 5.15005L6.33346 6.84172C6.10846 6.96672 5.9668 7.20838 5.9668 7.47505C5.9668 7.75005 6.10846 7.99172 6.33346 8.11672L9.4668 9.80838C9.63346 9.90005 9.8168 9.94172 10.0001 9.94172C10.1835 9.94172 10.3668 9.90005 10.5335 9.80838L13.6668 8.11672C13.8918 7.99172 14.0335 7.75005 14.0335 7.47505C14.0335 7.20838 13.8918 6.96672 13.6668 6.84172Z" fill="#396939"/>
<path d="M8.95 10.3916L6.03333 8.93328C5.80833 8.82494 5.55 8.83328 5.33333 8.96661C5.125 9.09994 5 9.32494 5 9.57494V12.3333C5 12.8083 5.26667 13.2416 5.69167 13.4499L8.60833 14.9083C8.70833 14.9583 8.81667 14.9833 8.93333 14.9833C9.06667 14.9833 9.19167 14.9499 9.30833 14.8749C9.525 14.7416 9.65 14.5166 9.65 14.2666V11.5083C9.64167 11.0333 9.38333 10.6083 8.95 10.3916Z" fill="#396939"/>
<path d="M14.6584 8.96661C14.4418 8.83328 14.1834 8.82494 13.9584 8.93328L11.0418 10.3916C10.6168 10.6083 10.3501 11.0333 10.3501 11.5083V14.2666C10.3501 14.5166 10.4751 14.7416 10.6918 14.8749C10.8084 14.9499 10.9334 14.9833 11.0668 14.9833C11.1751 14.9833 11.2834 14.9583 11.3918 14.9083L14.3084 13.4499C14.7334 13.2333 15.0001 12.8083 15.0001 12.3333V9.57494C15.0001 9.32494 14.8751 9.09994 14.6584 8.96661Z" fill="#396939"/>
</svg>
