<svg width="20" height="20" viewBox="0 0 20 20" fill="none" xmlns="http://www.w3.org/2000/svg">
<path d="M12.4414 2.08341V7.00008C12.4414 7.36675 12.0081 7.55008 11.7414 7.30842L10.2831 5.96675C10.1248 5.81675 9.87477 5.81675 9.71644 5.96675L8.25811 7.30008C7.99144 7.55008 7.55811 7.35841 7.55811 7.00008V2.08341C7.55811 1.85008 7.74144 1.66675 7.97477 1.66675H12.0248C12.2581 1.66675 12.4414 1.85008 12.4414 2.08341Z" fill="#BE252A"/>
<path d="M14.15 1.71665C13.9083 1.68332 13.6917 1.89165 13.6917 2.13332V7.14999C13.6917 7.78332 13.3167 8.35832 12.7333 8.61665C12.15 8.86665 11.475 8.75832 11.0083 8.32499L10.2833 7.65832C10.125 7.50832 9.88333 7.50832 9.71667 7.65832L8.99167 8.32499C8.69167 8.60832 8.3 8.74999 7.90833 8.74999C7.69167 8.74999 7.475 8.70832 7.26667 8.61665C6.68333 8.35832 6.30833 7.78332 6.30833 7.14999V2.13332C6.30833 1.89165 6.09167 1.68332 5.85 1.71665C3.51667 2.00832 2.5 3.58332 2.5 5.83332V14.1667C2.5 16.6667 3.75 18.3333 6.66667 18.3333H13.3333C16.25 18.3333 17.5 16.6667 17.5 14.1667V5.83332C17.5 3.58332 16.4833 2.00832 14.15 1.71665ZM14.5833 15.625H7.5C7.15833 15.625 6.875 15.3417 6.875 15C6.875 14.6583 7.15833 14.375 7.5 14.375H14.5833C14.925 14.375 15.2083 14.6583 15.2083 15C15.2083 15.3417 14.925 15.625 14.5833 15.625ZM14.5833 12.2917H11.0417C10.7 12.2917 10.4167 12.0083 10.4167 11.6667C10.4167 11.325 10.7 11.0417 11.0417 11.0417H14.5833C14.925 11.0417 15.2083 11.325 15.2083 11.6667C15.2083 12.0083 14.925 12.2917 14.5833 12.2917Z" fill="#BE252A"/>
</svg>
