<svg width="20" height="20" viewBox="0 0 20 20" fill="none" xmlns="http://www.w3.org/2000/svg">
<path d="M11.225 6.17494L13.275 5.1666C13.525 5.0416 13.5917 4.7166 13.4 4.5166C12.6583 3.69994 11.9083 3.0166 11.3083 2.49994C11.0333 2.2666 10.625 2.45827 10.625 2.8166V5.79994C10.625 6.10827 10.95 6.30827 11.225 6.17494Z" fill="#396939"/>
<path d="M10.625 16.45V17.825C10.625 18.075 10.85 18.2834 11.1 18.2417C13.375 17.8667 15.275 16.3417 16.175 14.2917C16.3333 13.9417 15.95 13.5917 15.6 13.7584L10.8583 16.0834C10.7167 16.15 10.625 16.2917 10.625 16.45Z" fill="#396939"/>
<path d="M9.37506 2.79994C9.37506 2.4416 8.96673 2.24994 8.69173 2.47494C6.72506 4.12494 3.23339 7.59994 3.25006 11.5833C3.25006 14.9333 5.70006 17.7083 8.90006 18.2416C9.15006 18.2833 9.37506 18.0749 9.37506 17.8249V2.79994Z" fill="#396939"/>
<path d="M11.2 10.3916L15.6084 8.54162C15.8334 8.44162 15.9417 8.18329 15.8334 7.96662C15.525 7.35829 15.1667 6.76662 14.775 6.21662C14.6584 6.04995 14.4417 5.99995 14.2584 6.08329L10.85 7.74162C10.7084 7.80829 10.6167 7.95829 10.6167 8.11662V10.0083C10.625 10.3 10.925 10.5083 11.2 10.3916Z" fill="#396939"/>
<path d="M16.525 11.925C16.6583 11.8583 16.7417 11.7333 16.7417 11.5917C16.7417 11.0583 16.675 10.5333 16.5583 10.0167C16.5 9.76668 16.225 9.63335 15.9917 9.73335L10.875 11.9167C10.725 11.9833 10.625 12.1333 10.625 12.3V14.1333C10.625 14.4417 10.95 14.6417 11.225 14.5083L16.1417 12.1167L16.525 11.925Z" fill="#396939"/>
</svg>
