<svg width="20" height="20" viewBox="0 0 20 20" fill="none" xmlns="http://www.w3.org/2000/svg">
<path d="M4.1665 6.66675C2.78317 6.66675 1.6665 7.78341 1.6665 9.16675V15.8334C1.6665 17.2167 2.78317 18.3334 4.1665 18.3334H5.4165C6.33317 18.3334 7.08317 17.5834 7.08317 16.6667V8.33341C7.08317 7.41675 6.33317 6.66675 5.4165 6.66675H4.1665ZM4.99984 14.1667C4.99984 14.5084 4.7165 14.7917 4.37484 14.7917C4.03317 14.7917 3.74984 14.5084 3.74984 14.1667V10.8334C3.74984 10.4917 4.03317 10.2084 4.37484 10.2084C4.7165 10.2084 4.99984 10.4917 4.99984 10.8334V14.1667Z" fill="#396939"/>
<path d="M15.8335 1.66675H10.8335C9.45016 1.66675 8.3335 2.78341 8.3335 4.16675V15.8334C8.3335 17.2167 9.45016 18.3334 10.8335 18.3334H11.2502C11.4835 18.3334 11.6668 18.1501 11.6668 17.9167V15.0001C11.6668 14.5417 12.0418 14.1667 12.5002 14.1667H14.1668C14.6252 14.1667 15.0002 14.5417 15.0002 15.0001V17.9167C15.0002 18.1501 15.1835 18.3334 15.4168 18.3334H15.8335C17.2168 18.3334 18.3335 17.2167 18.3335 15.8334V4.16675C18.3335 2.78341 17.2168 1.66675 15.8335 1.66675ZM12.2918 10.8334C12.2918 11.1751 12.0085 11.4584 11.6668 11.4584C11.3252 11.4584 11.0418 11.1751 11.0418 10.8334V6.66675C11.0418 6.32508 11.3252 6.04175 11.6668 6.04175C12.0085 6.04175 12.2918 6.32508 12.2918 6.66675V10.8334ZM15.6252 10.8334C15.6252 11.1751 15.3418 11.4584 15.0002 11.4584C14.6585 11.4584 14.3752 11.1751 14.3752 10.8334V6.66675C14.3752 6.32508 14.6585 6.04175 15.0002 6.04175C15.3418 6.04175 15.6252 6.32508 15.6252 6.66675V10.8334Z" fill="#396939"/>
</svg>
