<svg width="21" height="20" viewBox="0 0 21 20" fill="none" xmlns="http://www.w3.org/2000/svg">
<path d="M14.4582 2.96675V1.66675C14.4582 1.32508 14.1749 1.04175 13.8332 1.04175C13.4915 1.04175 13.2082 1.32508 13.2082 1.66675V2.91675H7.79153V1.66675C7.79153 1.32508 7.5082 1.04175 7.16653 1.04175C6.82487 1.04175 6.54153 1.32508 6.54153 1.66675V2.96675C4.29153 3.17508 3.19987 4.51675 3.0332 6.50841C3.01653 6.75008 3.21653 6.95008 3.44987 6.95008H17.5499C17.7915 6.95008 17.9915 6.74175 17.9665 6.50841C17.7999 4.51675 16.7082 3.17508 14.4582 2.96675Z" fill="#396939"/>
<path d="M17.1667 8.19995H3.83333C3.375 8.19995 3 8.57495 3 9.03328V14.1666C3 16.6666 4.25 18.3333 7.16667 18.3333H13.8333C16.75 18.3333 18 16.6666 18 14.1666V9.03328C18 8.57495 17.625 8.19995 17.1667 8.19995ZM8.175 15.175C8.13333 15.2083 8.09167 15.25 8.05 15.275C8 15.3083 7.95 15.3333 7.9 15.35C7.85 15.375 7.8 15.3916 7.75 15.4C7.69167 15.4083 7.64167 15.4166 7.58333 15.4166C7.475 15.4166 7.36667 15.3916 7.26667 15.35C7.15833 15.3083 7.075 15.2499 6.99167 15.175C6.84167 15.0166 6.75 14.8 6.75 14.5833C6.75 14.3666 6.84167 14.15 6.99167 13.9916C7.075 13.9166 7.15833 13.8583 7.26667 13.8166C7.41667 13.75 7.58333 13.7333 7.75 13.7666C7.8 13.775 7.85 13.7916 7.9 13.8166C7.95 13.8333 8 13.8583 8.05 13.8916C8.09167 13.925 8.13333 13.9583 8.175 13.9916C8.325 14.15 8.41667 14.3666 8.41667 14.5833C8.41667 14.8 8.325 15.0166 8.175 15.175ZM8.175 12.2583C8.01667 12.4083 7.8 12.5 7.58333 12.5C7.36667 12.5 7.15 12.4083 6.99167 12.2583C6.84167 12.1 6.75 11.8833 6.75 11.6666C6.75 11.45 6.84167 11.2333 6.99167 11.075C7.225 10.8416 7.59167 10.7666 7.9 10.9C8.00833 10.9416 8.1 11 8.175 11.075C8.325 11.2333 8.41667 11.45 8.41667 11.6666C8.41667 11.8833 8.325 12.1 8.175 12.2583ZM11.0917 15.175C10.9333 15.325 10.7167 15.4166 10.5 15.4166C10.2833 15.4166 10.0667 15.325 9.90833 15.175C9.75833 15.0166 9.66667 14.8 9.66667 14.5833C9.66667 14.3666 9.75833 14.15 9.90833 13.9916C10.2167 13.6833 10.7833 13.6833 11.0917 13.9916C11.2417 14.15 11.3333 14.3666 11.3333 14.5833C11.3333 14.8 11.2417 15.0166 11.0917 15.175ZM11.0917 12.2583C11.05 12.2916 11.0083 12.325 10.9667 12.3583C10.9167 12.3916 10.8667 12.4166 10.8167 12.4333C10.7667 12.4583 10.7167 12.475 10.6667 12.4833C10.6083 12.4916 10.5583 12.5 10.5 12.5C10.2833 12.5 10.0667 12.4083 9.90833 12.2583C9.75833 12.1 9.66667 11.8833 9.66667 11.6666C9.66667 11.45 9.75833 11.2333 9.90833 11.075C9.98333 11 10.075 10.9416 10.1833 10.9C10.4917 10.7666 10.8583 10.8416 11.0917 11.075C11.2417 11.2333 11.3333 11.45 11.3333 11.6666C11.3333 11.8833 11.2417 12.1 11.0917 12.2583ZM14.0083 15.175C13.85 15.325 13.6333 15.4166 13.4167 15.4166C13.2 15.4166 12.9833 15.325 12.825 15.175C12.675 15.0166 12.5833 14.8 12.5833 14.5833C12.5833 14.3666 12.675 14.15 12.825 13.9916C13.1333 13.6833 13.7 13.6833 14.0083 13.9916C14.1583 14.15 14.25 14.3666 14.25 14.5833C14.25 14.8 14.1583 15.0166 14.0083 15.175ZM14.0083 12.2583C13.9667 12.2916 13.925 12.325 13.8833 12.3583C13.8333 12.3916 13.7833 12.4166 13.7333 12.4333C13.6833 12.4583 13.6333 12.475 13.5833 12.4833C13.525 12.4916 13.4667 12.5 13.4167 12.5C13.2 12.5 12.9833 12.4083 12.825 12.2583C12.675 12.1 12.5833 11.8833 12.5833 11.6666C12.5833 11.45 12.675 11.2333 12.825 11.075C12.9083 11 12.9917 10.9416 13.1 10.9C13.25 10.8333 13.4167 10.8166 13.5833 10.85C13.6333 10.8583 13.6833 10.875 13.7333 10.9C13.7833 10.9166 13.8333 10.9416 13.8833 10.975C13.925 11.0083 13.9667 11.0416 14.0083 11.075C14.1583 11.2333 14.25 11.45 14.25 11.6666C14.25 11.8833 14.1583 12.1 14.0083 12.2583Z" fill="#396939"/>
</svg>
