<svg width="20" height="20" viewBox="0 0 20 20" fill="none" xmlns="http://www.w3.org/2000/svg">
<path d="M18.125 6.66673C18.125 7.0084 17.8417 7.29173 17.5 7.29173H2.5C2.15833 7.29173 1.875 7.0084 1.875 6.66673C1.875 6.32507 2.15833 6.04173 2.5 6.04173H3.35L3.66667 4.5334C3.96667 3.07507 4.59167 1.7334 7.075 1.7334H12.925C15.4083 1.7334 16.0333 3.07507 16.3333 4.5334L16.65 6.04173H17.5C17.8417 6.04173 18.125 6.32507 18.125 6.66673Z" fill="#396939"/>
<path d="M18.4835 11.3834C18.3585 10.0084 17.9918 8.54175 15.3168 8.54175H4.68349C2.00849 8.54175 1.65015 10.0084 1.51682 11.3834L1.05015 16.4584C0.99182 17.0917 1.20015 17.7251 1.63349 18.2001C2.07515 18.6834 2.70015 18.9584 3.36682 18.9584H4.93349C6.28349 18.9584 6.54182 18.1834 6.70849 17.6751L6.87515 17.1751C7.06682 16.6001 7.11682 16.4584 7.86682 16.4584H12.1335C12.8835 16.4584 12.9085 16.5417 13.1252 17.1751L13.2918 17.6751C13.4585 18.1834 13.7168 18.9584 15.0668 18.9584H16.6335C17.2918 18.9584 17.9252 18.6834 18.3668 18.2001C18.8002 17.7251 19.0085 17.0917 18.9502 16.4584L18.4835 11.3834ZM7.50015 13.1251H5.00015C4.65849 13.1251 4.37515 12.8417 4.37515 12.5001C4.37515 12.1584 4.65849 11.8751 5.00015 11.8751H7.50015C7.84182 11.8751 8.12515 12.1584 8.12515 12.5001C8.12515 12.8417 7.84182 13.1251 7.50015 13.1251ZM15.0002 13.1251H12.5002C12.1585 13.1251 11.8752 12.8417 11.8752 12.5001C11.8752 12.1584 12.1585 11.8751 12.5002 11.8751H15.0002C15.3418 11.8751 15.6252 12.1584 15.6252 12.5001C15.6252 12.8417 15.3418 13.1251 15.0002 13.1251Z" fill="#396939"/>
</svg>
