<svg width="32" height="32" viewBox="0 0 32 32" fill="none" xmlns="http://www.w3.org/2000/svg">
<rect width="32" height="32" rx="7.6875" fill="white"/>
<path d="M16.6843 26H15.2436C15.171 25.9851 15.0984 25.9693 15.0258 25.9549C14.4615 25.8475 13.8882 25.7745 13.3361 25.6225C12.9888 25.5277 12.6527 25.3518 12.3469 25.1556C11.4195 24.5643 11.2193 23.6671 11.4033 22.6576C11.5142 22.0523 11.6947 21.46 11.8521 20.8277C11.3717 20.4758 10.9833 19.9684 10.6834 19.3883C10.1466 18.3545 9.92109 17.2386 9.84486 16.0856C9.82456 15.7749 9.81194 15.4636 9.7957 15.1447C9.72939 15.1542 9.68428 15.1564 9.64143 15.1668C8.84937 15.3585 8.13984 15.1813 7.51738 14.6679C6.82003 14.0933 6.4028 13.3278 6.08706 12.4979C5.94858 12.1321 5.94542 12.1185 6.30041 11.9417C7.34688 11.4207 8.46551 11.3102 9.60445 11.4505C10.033 11.5042 10.4448 11.6927 10.8733 11.8222L11.5616 11.0319C11.291 10.7378 11.0068 10.4685 10.7691 10.1636C10.0307 9.21639 9.5616 8.11851 9.08978 7.02603C9.04355 6.89991 9.03324 6.76343 9.06001 6.6318C9.08716 6.47167 9.16564 6.32471 9.28362 6.21308C9.40159 6.10145 9.55267 6.0312 9.71405 6.01294C10.12 5.97731 10.3906 6.16405 10.5612 6.5673C11.1782 8.0107 12.263 8.84427 13.8268 9.03687C13.9122 9.04458 13.9977 9.02294 14.0691 8.97553C15.3086 8.08828 16.609 8.08873 17.858 8.97778C17.9228 9.02219 18.0005 9.04391 18.079 9.03958C18.7087 8.98788 19.3155 8.77982 19.8445 8.43425C20.5698 7.96018 21.0754 7.3093 21.3939 6.5037C21.5653 6.07023 22.0254 5.88755 22.4313 6.07068C22.8373 6.25381 22.9906 6.7148 22.7976 7.13248C22.6469 7.45815 22.5094 7.78968 22.3555 8.11399C21.9631 8.94124 21.5355 9.74684 20.9333 10.4469C20.7529 10.6562 20.5829 10.8741 20.411 11.0842L21.0479 11.8141C21.5206 11.6787 21.9712 11.4735 22.4367 11.4329C23.6677 11.326 24.8725 11.4424 25.955 12.1334V12.2236C25.923 12.2981 25.8874 12.3711 25.8594 12.4492C25.6294 13.077 25.3281 13.6693 24.8964 14.1862C24.3366 14.856 23.6519 15.2832 22.7426 15.2349C22.5432 15.2246 22.3461 15.1799 22.1417 15.1501C22.1079 15.6269 22.0921 16.0974 22.038 16.5642C21.8454 18.2223 21.3894 19.7622 20.0199 20.8917C20.3528 21.6178 20.5416 22.4017 20.5757 23.1998C20.6108 23.9603 20.3429 24.5755 19.7457 25.0437C19.2044 25.4695 18.5666 25.6847 17.9013 25.8155C17.499 25.8944 17.0903 25.9396 16.6843 26ZM18.2261 24.1561C18.4448 24.0234 18.651 23.9174 18.8332 23.7803C18.9207 23.714 19.0168 23.5886 19.0172 23.4898C19.0172 22.8236 18.9595 22.1772 18.4308 21.6684C18.0655 21.3157 17.6234 21.1073 17.1796 20.889C16.6704 20.6391 16.5788 20.2652 16.9162 19.8119C17.1868 19.4483 17.3627 19.0496 17.4123 18.6008C17.4516 18.2363 17.4814 17.87 17.4931 17.5038C17.512 16.8971 17.7493 16.575 18.3321 16.4131C18.6198 16.3328 18.9144 16.2751 19.1986 16.184C19.5549 16.0694 19.7461 15.8033 19.7872 15.4361C19.8347 15.0523 19.7363 14.6647 19.5116 14.3499C19.241 13.9638 18.8738 13.6959 18.4579 13.4929C17.3871 12.9747 16.2554 12.838 15.0858 13.0017C14.3988 13.0978 13.742 13.2999 13.1498 13.6733C12.6663 13.9774 12.2657 14.3612 12.1606 14.9494C12.0411 15.6188 12.2391 16.0852 12.9274 16.2467L13.452 16.3698C14.1737 16.5394 14.4263 16.8556 14.4331 17.6008C14.4407 18.4361 14.5377 19.2395 15.0871 19.9318C15.3311 20.239 15.2193 20.6084 14.8769 20.815C14.7042 20.9183 14.5161 20.9986 14.3356 21.0857C13.4899 21.4916 12.9572 22.1109 12.9031 23.0906C12.8765 23.5706 12.9482 23.7465 13.3753 23.977C13.4344 24.009 13.4976 24.0338 13.5558 24.0672C13.6636 24.1258 13.7231 24.0947 13.816 24.0049C13.9513 23.8768 14.1218 23.7501 14.2969 23.7118C14.7511 23.613 15.0637 23.8701 15.222 24.4335H16.7159C16.7768 24.0631 16.9536 23.802 17.3023 23.7167C17.6934 23.6188 17.9924 23.7763 18.2261 24.1561Z" fill="#396939"/>
</svg>
