<svg width="20" height="20" viewBox="0 0 20 20" fill="none" xmlns="http://www.w3.org/2000/svg">
<path d="M14.1668 18.3333H5.8335C5.49183 18.3333 5.2085 18.0499 5.2085 17.7083C5.2085 17.3666 5.49183 17.0833 5.8335 17.0833H14.1668C14.5085 17.0833 14.7918 17.3666 14.7918 17.7083C14.7918 18.0499 14.5085 18.3333 14.1668 18.3333Z" fill="white"/>
<path d="M16.9585 4.59995L13.6252 6.98328C13.1835 7.29995 12.5502 7.10828 12.3585 6.59995L10.7835 2.39995C10.5168 1.67495 9.49185 1.67495 9.22518 2.39995L7.64185 6.59162C7.45018 7.10828 6.82518 7.29995 6.38352 6.97495L3.05018 4.59162C2.38352 4.12495 1.50018 4.78328 1.77518 5.55828L5.24185 15.2666C5.35852 15.6 5.67518 15.8166 6.02518 15.8166H13.9669C14.3169 15.8166 14.6335 15.5916 14.7502 15.2666L18.2169 5.55828C18.5002 4.78328 17.6169 4.12495 16.9585 4.59995ZM12.0835 12.2916H7.91685C7.57518 12.2916 7.29185 12.0083 7.29185 11.6666C7.29185 11.325 7.57518 11.0416 7.91685 11.0416H12.0835C12.4252 11.0416 12.7085 11.325 12.7085 11.6666C12.7085 12.0083 12.4252 12.2916 12.0835 12.2916Z" fill="white"/>
</svg>
