<svg width="20" height="20" viewBox="0 0 20 20" fill="none" xmlns="http://www.w3.org/2000/svg">
<path d="M18.1336 13.2667L12.8002 3.66675C12.0836 2.37508 11.0919 1.66675 10.0002 1.66675C8.90856 1.66675 7.91689 2.37508 7.20023 3.66675L1.86689 13.2667C1.19189 14.4917 1.11689 15.6667 1.65856 16.5917C2.20023 17.5167 3.26689 18.0251 4.66689 18.0251H15.3336C16.7336 18.0251 17.8002 17.5167 18.3419 16.5917C18.8836 15.6667 18.8086 14.4834 18.1336 13.2667ZM9.37523 7.50008C9.37523 7.15841 9.65856 6.87508 10.0002 6.87508C10.3419 6.87508 10.6252 7.15841 10.6252 7.50008V11.6667C10.6252 12.0084 10.3419 12.2917 10.0002 12.2917C9.65856 12.2917 9.37523 12.0084 9.37523 11.6667V7.50008ZM10.5919 14.7584C10.5502 14.7917 10.5086 14.8251 10.4669 14.8584C10.4169 14.8917 10.3669 14.9167 10.3169 14.9334C10.2669 14.9584 10.2169 14.9751 10.1586 14.9834C10.1086 14.9917 10.0502 15.0001 10.0002 15.0001C9.95023 15.0001 9.89189 14.9917 9.83356 14.9834C9.78356 14.9751 9.73356 14.9584 9.68356 14.9334C9.63356 14.9167 9.58356 14.8917 9.53356 14.8584C9.49189 14.8251 9.45023 14.7917 9.40856 14.7584C9.25856 14.6001 9.16689 14.3834 9.16689 14.1667C9.16689 13.9501 9.25856 13.7334 9.40856 13.5751C9.45023 13.5417 9.49189 13.5084 9.53356 13.4751C9.58356 13.4417 9.63356 13.4167 9.68356 13.4001C9.73356 13.3751 9.78356 13.3584 9.83356 13.3501C9.94189 13.3251 10.0586 13.3251 10.1586 13.3501C10.2169 13.3584 10.2669 13.3751 10.3169 13.4001C10.3669 13.4167 10.4169 13.4417 10.4669 13.4751C10.5086 13.5084 10.5502 13.5417 10.5919 13.5751C10.7419 13.7334 10.8336 13.9501 10.8336 14.1667C10.8336 14.3834 10.7419 14.6001 10.5919 14.7584Z" fill="white"/>
</svg>
