<svg width="20" height="20" viewBox="0 0 20 20" fill="none" xmlns="http://www.w3.org/2000/svg">
<path d="M17.0835 8.49163H14.6752C12.7002 8.49163 11.0918 6.88329 11.0918 4.90829V2.49996C11.0918 2.04163 10.7168 1.66663 10.2585 1.66663H6.72516C4.1585 1.66663 2.0835 3.33329 2.0835 6.30829V13.6916C2.0835 16.6666 4.1585 18.3333 6.72516 18.3333H13.2752C15.8418 18.3333 17.9168 16.6666 17.9168 13.6916V9.32496C17.9168 8.86663 17.5418 8.49163 17.0835 8.49163ZM10.2335 13.15L8.56683 14.8166C8.5085 14.875 8.4335 14.925 8.3585 14.95C8.2835 14.9833 8.2085 15 8.12516 15C8.04183 15 7.96683 14.9833 7.89183 14.95C7.82516 14.925 7.7585 14.875 7.7085 14.825C7.70016 14.8166 7.69183 14.8166 7.69183 14.8083L6.02516 13.1416C5.7835 12.9 5.7835 12.5 6.02516 12.2583C6.26683 12.0166 6.66683 12.0166 6.9085 12.2583L7.50016 12.8666V9.37496C7.50016 9.03329 7.7835 8.74996 8.12516 8.74996C8.46683 8.74996 8.75016 9.03329 8.75016 9.37496V12.8666L9.35016 12.2666C9.59183 12.025 9.99183 12.025 10.2335 12.2666C10.4752 12.5083 10.4752 12.9083 10.2335 13.15Z" fill="#396939"/>
<path d="M14.5251 7.3417C15.3167 7.35004 16.4167 7.35003 17.3584 7.35003C17.8334 7.35003 18.0834 6.7917 17.7501 6.45837C16.5501 5.25003 14.4001 3.07503 13.1667 1.8417C12.8251 1.50003 12.2334 1.73337 12.2334 2.20837V5.1167C12.2334 6.33337 13.2667 7.3417 14.5251 7.3417Z" fill="#396939"/>
</svg>
