<svg width="18" height="20" viewBox="0 0 18 20" fill="none" xmlns="http://www.w3.org/2000/svg">
<path d="M9.60988 0.287085C9.44067 0.140051 9.22404 0.059082 8.99988 0.059082C8.77571 0.059082 8.55909 0.140051 8.38988 0.287085C7.62977 0.945276 7.01581 1.75526 6.5875 2.66494C6.15918 3.57462 5.92597 4.56387 5.90288 5.56908C5.90234 5.66249 5.92814 5.75415 5.97731 5.83356C6.02648 5.91298 6.09703 5.97693 6.18088 6.01808C6.78907 6.33455 7.35938 6.71901 7.88088 7.16408C8.13888 7.38308 8.37288 7.61209 8.58488 7.84509C8.80488 8.08708 9.19488 8.08708 9.41488 7.84509C9.62788 7.61209 9.86188 7.38308 10.1189 7.16508C10.6402 6.71983 11.2106 6.33535 11.8189 6.01908C11.9029 5.97807 11.9737 5.91418 12.023 5.83475C12.0724 5.75533 12.0983 5.66359 12.0979 5.57009C12.0749 4.5647 11.8418 3.57526 11.4135 2.66539C10.9851 1.75553 10.3711 0.945389 9.61088 0.287085H9.60988ZM8.99988 16.0431C9.80264 14.6298 11.0091 13.4883 12.4647 12.765C13.9202 12.0417 15.5586 11.7694 17.1699 11.9831C17.6579 12.0471 18.0229 12.4831 17.9849 12.9871C17.838 14.8953 16.9761 16.6778 15.5717 17.9781C14.1673 19.2783 12.3238 20.0004 10.4099 20.0001H7.58988C5.67614 20.0002 3.83289 19.2779 2.42867 17.9777C1.02445 16.6775 0.162757 14.8952 0.0158764 12.9871C-0.00229802 12.7473 0.0720291 12.5096 0.223595 12.3229C0.375161 12.1362 0.592462 12.0146 0.830876 11.9831C2.44216 11.7693 4.0806 12.0415 5.53618 12.7648C6.99177 13.4882 8.19821 14.6297 9.00088 16.0431H8.99988ZM16.6459 10.9301C14.7989 10.8281 12.9919 11.3101 11.5199 12.0951C10.6379 12.5651 9.82988 13.1701 9.19788 13.8661C9.17276 13.8936 9.14218 13.9156 9.10809 13.9307C9.074 13.9457 9.03714 13.9535 8.99988 13.9535C8.96261 13.9535 8.92575 13.9457 8.89166 13.9307C8.85757 13.9156 8.82699 13.8936 8.80188 13.8661C8.17188 13.1691 7.36288 12.5651 6.48088 12.0951C5.01188 11.3121 3.21088 10.8311 1.36888 10.9301C0.638876 9.78009 0.138876 8.46008 0.0188764 7.13008C0.00762757 7.00434 0.0213422 6.87762 0.0592318 6.7572C0.0971215 6.63677 0.158439 6.52503 0.239659 6.42838C0.32088 6.33173 0.420401 6.25209 0.532503 6.19404C0.644605 6.13598 0.767076 6.10065 0.892876 6.09009C3.34788 5.88509 5.39688 6.37008 7.23488 7.92708C8.06488 8.63008 8.62088 9.47408 9.00088 10.1941C9.37988 9.47408 9.93688 8.63008 10.7659 7.92708C12.6059 6.36908 14.6689 5.88509 17.1219 6.09009C17.2478 6.10053 17.3703 6.13576 17.4826 6.19377C17.5948 6.25177 17.6944 6.33139 17.7757 6.42805C17.8571 6.52471 17.9185 6.6365 17.9564 6.75698C17.9944 6.87747 18.0081 7.00427 17.9969 7.13008C17.8759 8.46008 17.3749 9.78109 16.6459 10.9301Z" fill="#396939"/>
</svg>
