<svg width="20" height="20" viewBox="0 0 20 20" fill="none" xmlns="http://www.w3.org/2000/svg">
<path d="M17.2665 15.1999L16.4832 14.4166C16.8915 13.7999 17.1332 13.0583 17.1332 12.2583C17.1332 10.0916 15.3749 8.33325 13.2082 8.33325C11.0415 8.33325 9.2832 10.0916 9.2832 12.2583C9.2832 14.4249 11.0415 16.1833 13.2082 16.1833C14.0082 16.1833 14.7415 15.9416 15.3665 15.5333L16.1499 16.3166C16.3082 16.4749 16.5082 16.5499 16.7165 16.5499C16.9249 16.5499 17.1249 16.4749 17.2832 16.3166C17.5749 16.0166 17.5749 15.5166 17.2665 15.1999Z" fill="#419441"/>
<path d="M16.3166 3.35008V5.20008C16.3166 5.87508 15.8999 6.71675 15.4833 7.14175L15.3333 7.27508C15.2166 7.38341 15.0416 7.40841 14.8916 7.35842C14.7249 7.30008 14.5583 7.25841 14.3916 7.21675C14.0249 7.12508 13.6333 7.08342 13.2333 7.08342C10.3583 7.08342 8.02493 9.41675 8.02493 12.2917C8.02493 13.2417 8.28327 14.1751 8.77493 14.9751C9.1916 15.6751 9.77493 16.2584 10.4083 16.6501C10.5999 16.7751 10.6749 17.0417 10.5083 17.1917C10.4499 17.2417 10.3916 17.2834 10.3333 17.3251L9.1666 18.0834C8.08327 18.7584 6.5916 18.0001 6.5916 16.6501V12.1917C6.5916 11.6001 6.25827 10.8417 5.92493 10.4251L2.7666 7.05842C2.34993 6.63342 2.0166 5.87508 2.0166 5.37508V3.43341C2.0166 2.42508 2.7666 1.66675 3.67493 1.66675H14.6583C15.5666 1.66675 16.3166 2.42508 16.3166 3.35008Z" fill="#419441"/>
</svg>
