<svg width="20" height="20" viewBox="0 0 20 20" fill="none" xmlns="http://www.w3.org/2000/svg">
<path d="M18.3332 17.7083H1.6665C1.32484 17.7083 1.0415 17.9916 1.0415 18.3333C1.0415 18.6749 1.32484 18.9583 1.6665 18.9583H18.3332C18.6748 18.9583 18.9582 18.6749 18.9582 18.3333C18.9582 17.9916 18.6748 17.7083 18.3332 17.7083Z" fill="#396939"/>
<path d="M14.1667 1.66675H5.83333C3.33333 1.66675 2.5 3.15841 2.5 5.00008V18.3334H7.5V13.2834C7.5 12.8501 7.85 12.5001 8.28333 12.5001H11.725C12.15 12.5001 12.5083 12.8501 12.5083 13.2834V18.3334H17.5083V5.00008C17.5 3.15841 16.6667 1.66675 14.1667 1.66675ZM12.0833 7.70841H10.625V9.16675C10.625 9.50841 10.3417 9.79175 10 9.79175C9.65833 9.79175 9.375 9.50841 9.375 9.16675V7.70841H7.91667C7.575 7.70841 7.29167 7.42508 7.29167 7.08341C7.29167 6.74175 7.575 6.45841 7.91667 6.45841H9.375V5.00008C9.375 4.65841 9.65833 4.37508 10 4.37508C10.3417 4.37508 10.625 4.65841 10.625 5.00008V6.45841H12.0833C12.425 6.45841 12.7083 6.74175 12.7083 7.08341C12.7083 7.42508 12.425 7.70841 12.0833 7.70841Z" fill="#396939"/>
</svg>
