<svg width="21" height="20" viewBox="0 0 21 20" fill="none" xmlns="http://www.w3.org/2000/svg">
<path d="M15.5 13.3334V15.8334C15.5 17.2084 14.375 18.3334 13 18.3334H8C6.625 18.3334 5.5 17.2084 5.5 15.8334V12.4918C5.5 12.0334 5.875 11.6584 6.34167 11.6584L8.74167 11.6668C9.31667 11.6668 9.88333 11.7918 10.4083 12.0418C10.9833 12.3084 11.5917 12.5001 12.2333 12.5001H14.6667C15.125 12.5001 15.5 12.8751 15.5 13.3334Z" fill="#396939"/>
<path d="M15.0083 7.84175L13.2417 6.07508C13.0833 5.91675 13 5.70841 13 5.49175V4.09175C13.4833 3.92508 13.8333 3.45841 13.8333 2.91675C13.8333 2.22508 13.275 1.66675 12.5833 1.66675H8.41667C7.725 1.66675 7.16667 2.22508 7.16667 2.91675C7.16667 3.45841 7.51667 3.92508 8 4.09175V5.49175C8 5.70841 7.91667 5.91675 7.75833 6.07508L5.99167 7.84175C5.725 8.10841 5.5 8.65008 5.5 9.02508V9.56675C5.5 10.0251 5.86667 10.4001 6.325 10.4001L8.75 10.4167C9.56667 10.4167 10.3917 10.6167 11.125 11.0001C11.475 11.1834 11.875 11.2501 12.2667 11.2501H14.6667C15.125 11.2501 15.5 10.8751 15.5 10.4167V9.02508C15.5 8.65008 15.275 8.10841 15.0083 7.84175Z" fill="#396939"/>
</svg>
