<svg width="20" height="20" viewBox="0 0 20 20" fill="none" xmlns="http://www.w3.org/2000/svg">
<path d="M18.3083 1.94159C17.7083 1.25825 16.8167 0.833252 15.8333 0.833252C14.9 0.833252 14.05 1.21659 13.4417 1.84159C13.0917 2.19992 12.825 2.63325 12.6667 3.11659C12.5583 3.44992 12.5 3.79992 12.5 4.16659C12.5 4.79159 12.675 5.38325 12.9833 5.88325C13.15 6.16658 13.3667 6.42492 13.6167 6.64158C14.2 7.17492 14.975 7.49992 15.8333 7.49992C16.2 7.49992 16.55 7.44159 16.875 7.32492C17.6417 7.08325 18.2833 6.55825 18.6833 5.88325C18.8583 5.59992 18.9917 5.27492 19.0667 4.94159C19.1333 4.69159 19.1667 4.43325 19.1667 4.16659C19.1667 3.31659 18.8417 2.53325 18.3083 1.94159ZM17.075 4.77492H16.4583V5.42492C16.4583 5.76659 16.175 6.04992 15.8333 6.04992C15.4917 6.04992 15.2083 5.76659 15.2083 5.42492V4.77492H14.5917C14.25 4.77492 13.9667 4.49159 13.9667 4.14992C13.9667 3.80825 14.25 3.52492 14.5917 3.52492H15.2083V2.93325C15.2083 2.59159 15.4917 2.30825 15.8333 2.30825C16.175 2.30825 16.4583 2.59159 16.4583 2.93325V3.52492H17.075C17.4167 3.52492 17.7 3.80825 17.7 4.14992C17.7 4.49159 17.425 4.77492 17.075 4.77492Z" fill="#BE252A"/>
<path d="M18.3332 10.0001C18.3332 8.90841 18.1248 7.85841 17.7332 6.90008C17.4748 7.08341 17.1832 7.22508 16.8748 7.32508C16.7832 7.35841 16.6915 7.38341 16.5915 7.40841C16.9082 8.20842 17.0832 9.08341 17.0832 10.0001C17.0832 11.9334 16.2998 13.6917 15.0332 14.9751C14.7915 14.6667 14.4832 14.3834 14.1165 14.1417C11.8582 12.6251 8.15817 12.6251 5.88317 14.1417C5.5165 14.3834 5.2165 14.6667 4.9665 14.9751C3.69984 13.6917 2.9165 11.9334 2.9165 10.0001C2.9165 6.09175 6.0915 2.91675 9.99984 2.91675C10.9082 2.91675 11.7832 3.09175 12.5832 3.40841C12.6082 3.30841 12.6332 3.21675 12.6665 3.11675C12.7665 2.80841 12.9082 2.52508 13.0998 2.26675C12.1415 1.87508 11.0915 1.66675 9.99984 1.66675C5.40817 1.66675 1.6665 5.40841 1.6665 10.0001C1.6665 12.4167 2.70817 14.5917 4.35817 16.1167C4.35817 16.1251 4.35817 16.1251 4.34984 16.1334C4.43317 16.2167 4.53317 16.2834 4.6165 16.3584C4.6665 16.4001 4.70817 16.4417 4.75817 16.4751C4.90817 16.6001 5.07484 16.7167 5.23317 16.8334C5.2915 16.8751 5.3415 16.9084 5.39984 16.9501C5.55817 17.0584 5.72484 17.1584 5.89984 17.2501C5.95817 17.2834 6.02484 17.3251 6.08317 17.3584C6.24984 17.4501 6.42484 17.5334 6.60817 17.6084C6.67484 17.6417 6.7415 17.6751 6.80817 17.7001C6.9915 17.7751 7.17484 17.8417 7.35817 17.9001C7.42484 17.9251 7.4915 17.9501 7.55817 17.9667C7.75817 18.0251 7.95817 18.0751 8.15817 18.1251C8.2165 18.1417 8.27484 18.1584 8.3415 18.1667C8.57484 18.2167 8.80817 18.2501 9.04984 18.2751C9.08317 18.2751 9.1165 18.2834 9.14984 18.2917C9.43317 18.3167 9.7165 18.3334 9.99984 18.3334C10.2832 18.3334 10.5665 18.3167 10.8415 18.2917C10.8748 18.2917 10.9082 18.2834 10.9415 18.2751C11.1832 18.2501 11.4165 18.2167 11.6498 18.1667C11.7082 18.1584 11.7665 18.1334 11.8332 18.1251C12.0332 18.0751 12.2415 18.0334 12.4332 17.9667C12.4998 17.9417 12.5665 17.9167 12.6332 17.9001C12.8165 17.8334 13.0082 17.7751 13.1832 17.7001C13.2498 17.6751 13.3165 17.6417 13.3832 17.6084C13.5582 17.5334 13.7332 17.4501 13.9082 17.3584C13.9748 17.3251 14.0332 17.2834 14.0915 17.2501C14.2582 17.1501 14.4248 17.0584 14.5915 16.9501C14.6498 16.9167 14.6998 16.8751 14.7582 16.8334C14.9248 16.7167 15.0832 16.6001 15.2332 16.4751C15.2832 16.4334 15.3248 16.3917 15.3748 16.3584C15.4665 16.2834 15.5582 16.2084 15.6415 16.1334C15.6415 16.1251 15.6415 16.1251 15.6332 16.1167C17.2915 14.5917 18.3332 12.4167 18.3332 10.0001Z" fill="#BE252A"/>
<path d="M10 5.7749C8.275 5.7749 6.875 7.1749 6.875 8.8999C6.875 10.5916 8.2 11.9666 9.95833 12.0166C9.98333 12.0166 10.0167 12.0166 10.0333 12.0166C10.05 12.0166 10.075 12.0166 10.0917 12.0166C10.1 12.0166 10.1083 12.0166 10.1083 12.0166C11.7917 11.9582 13.1167 10.5916 13.125 8.8999C13.125 7.1749 11.725 5.7749 10 5.7749Z" fill="#BE252A"/>
</svg>
