<svg width="20" height="20" viewBox="0 0 20 20" fill="none" xmlns="http://www.w3.org/2000/svg">
<path d="M9.95016 1.84161L7.94183 6.51661H5.9335C5.60016 6.51661 5.27516 6.54161 4.9585 6.60827L5.79183 4.60827L5.82516 4.53327L5.87516 4.39994C5.90016 4.34161 5.91683 4.29161 5.94183 4.24994C6.9085 2.00827 7.99183 1.30827 9.95016 1.84161Z" fill="#BE252A"/>
<path d="M15.6084 6.74176L15.5918 6.73343C15.0918 6.59176 14.5834 6.51676 14.0668 6.51676H8.8501L10.7251 2.15843L10.7501 2.1001C10.8668 2.14176 10.9918 2.2001 11.1168 2.24176L12.9584 3.01676C13.9834 3.44176 14.7001 3.88343 15.1418 4.41676C15.2168 4.51676 15.2834 4.60843 15.3501 4.71676C15.4251 4.83343 15.4834 4.9501 15.5168 5.0751C15.5501 5.1501 15.5751 5.21676 15.5918 5.29176C15.7168 5.71676 15.7251 6.2001 15.6084 6.74176Z" fill="#BE252A"/>
<path d="M10.4331 14.7167H10.6414C10.8914 14.7167 11.0998 14.4917 11.0998 14.2167C11.0998 13.8667 10.9998 13.8167 10.7831 13.7334L10.4331 13.6084V14.7167Z" fill="#BE252A"/>
<path d="M15.2417 7.93327C14.8667 7.82494 14.475 7.7666 14.0667 7.7666H5.93337C5.3667 7.7666 4.83337 7.87494 4.33337 8.0916C2.88337 8.7166 1.8667 10.1583 1.8667 11.8333V13.4583C1.8667 13.6583 1.88337 13.8499 1.90837 14.0499C2.0917 16.6999 3.50837 18.1166 6.15837 18.2916C6.35003 18.3166 6.5417 18.3333 6.75003 18.3333H13.25C16.3334 18.3333 17.9584 16.8666 18.1167 13.9499C18.125 13.7916 18.1334 13.6249 18.1334 13.4583V11.8333C18.1334 9.9916 16.9084 8.4416 15.2417 7.93327ZM11.0667 12.9166C11.45 13.0499 11.9667 13.3333 11.9667 14.2166C11.9667 14.9749 11.375 15.5833 10.6417 15.5833H10.4334V15.7666C10.4334 16.0083 10.2417 16.1999 10 16.1999C9.75837 16.1999 9.5667 16.0083 9.5667 15.7666V15.5833H9.4917C8.6917 15.5833 8.03337 14.9083 8.03337 14.0749C8.03337 13.8333 8.22503 13.6416 8.4667 13.6416C8.70837 13.6416 8.90003 13.8333 8.90003 14.0749C8.90003 14.4249 9.1667 14.7166 9.4917 14.7166H9.5667V13.3083L8.93337 13.0833C8.55003 12.9499 8.03337 12.6666 8.03337 11.7833C8.03337 11.0249 8.62503 10.4166 9.35837 10.4166H9.5667V10.2333C9.5667 9.9916 9.75837 9.79994 10 9.79994C10.2417 9.79994 10.4334 9.9916 10.4334 10.2333V10.4166H10.5084C11.3084 10.4166 11.9667 11.0916 11.9667 11.9249C11.9667 12.1666 11.775 12.3583 11.5334 12.3583C11.2917 12.3583 11.1 12.1666 11.1 11.9249C11.1 11.5749 10.8334 11.2833 10.5084 11.2833H10.4334V12.6916L11.0667 12.9166Z" fill="#BE252A"/>
<path d="M8.8999 11.7834C8.8999 12.1334 8.9999 12.1834 9.21657 12.2668L9.56657 12.3918V11.2834H9.35824C9.0999 11.2834 8.8999 11.5084 8.8999 11.7834Z" fill="#BE252A"/>
</svg>
