<svg width="124" height="32" viewBox="0 0 124 32" fill="none" xmlns="http://www.w3.org/2000/svg">
<g id="Group 427320257">
<path id="Vector" fill-rule="evenodd" clip-rule="evenodd" d="M27.8408 0.756104H20.0967V11.649L27.8408 16.1557V0.756104ZM18.2468 0.756104H10.5027V16.1262L18.2468 11.5801V0.756104ZM8.65277 0.756104H0.908691V31.9095H4.94309V19.3635L8.64293 17.2086L8.65277 0.756104ZM20.1656 31.9095H23.5899V18.4681L20.1656 16.5001V31.9095ZM24.4164 31.9095H27.8408V20.8887L24.4164 18.9207V31.9095ZM28.6575 31.9095H32.0916V23.3881L28.6575 21.4201V31.9095Z" fill="#2fb14b"/>
<path id="Vector_2" opacity="0.8" fill-rule="evenodd" clip-rule="evenodd" d="M97.9407 20.4361L108.666 1.40559H112.947L123.908 20.4361H118.929L116.647 16.2738H104.533L102.319 20.4361H97.9407ZM106.452 12.8298H114.787L110.654 5.09559L106.452 12.8298ZM67.8893 4.69215H75.5645V13.3612H67.8893C67.3363 13.4063 66.7829 13.2792 66.3051 12.9971C66.1557 12.8417 66.0421 12.6554 65.9724 12.4514C65.9027 12.2474 65.8786 12.0306 65.9016 11.8163V6.19767C65.8758 5.98468 65.8987 5.76862 65.9686 5.56578C66.0385 5.36293 66.1536 5.17861 66.3051 5.02671C66.7866 4.75611 67.3395 4.63936 67.8893 4.69215V4.69215ZM80.4255 20.3673V16.9036H89.9407C91.1104 16.9928 92.2765 16.6917 93.2568 16.0475C93.6149 15.6736 93.8881 15.2269 94.0579 14.7379C94.2277 14.2488 94.2901 13.7289 94.2408 13.2136V5.09559C94.2891 4.58481 94.2261 4.06965 94.0562 3.58553C93.8863 3.10142 93.6136 2.65985 93.2568 2.29119C92.285 1.62595 91.1148 1.31343 89.9407 1.40559H65.9311C64.7614 1.31489 63.5947 1.61608 62.6151 2.26167C62.257 2.63556 61.9838 3.08225 61.8139 3.5713C61.6441 4.06034 61.5818 4.58025 61.6311 5.09559V13.2136C61.5843 13.7228 61.648 14.236 61.8178 14.7184C61.9876 15.2007 62.2596 15.6406 62.6151 16.0081C63.5835 16.6813 64.7555 16.9978 65.9311 16.9036H75.5645V20.3673H80.4255ZM80.4255 4.69215H87.9432C88.4967 4.6402 89.0522 4.76786 89.5275 5.05623C89.6781 5.21116 89.7931 5.39708 89.8644 5.60101C89.9358 5.80495 89.9619 6.022 89.9407 6.23703V11.8557C89.9619 12.0707 89.9358 12.2877 89.8644 12.4917C89.7931 12.6956 89.6781 12.8815 89.5275 13.0365C89.0429 13.2985 88.4918 13.4114 87.9432 13.3612H80.4255V4.69215ZM36.0864 1.40559V20.4361H52.3519C53.5232 20.5245 54.6913 20.2273 55.6779 19.5899C56.0346 19.2131 56.3068 18.7645 56.4765 18.2741C56.6462 17.7838 56.7094 17.2629 56.6619 16.7461V12.5051C56.7067 11.9961 56.6421 11.4833 56.4724 11.0013C56.3026 10.5193 56.0317 10.0792 55.6779 9.71055C54.7037 9.04239 53.5294 8.72969 52.3519 8.82495H40.4455V4.69215H54.7824L56.0124 1.40559H36.0864ZM50.3938 17.1496H40.4455V12.1017H50.3938C50.9451 12.0585 51.4974 12.171 51.9879 12.4264C52.1351 12.5833 52.2472 12.7697 52.3168 12.9733C52.3863 13.1769 52.4117 13.393 52.3913 13.6072V15.6441C52.4117 15.8582 52.3863 16.0743 52.3168 16.2779C52.2472 16.4815 52.1351 16.668 51.9879 16.8249C51.4997 17.0866 50.9455 17.1995 50.3938 17.1496V17.1496Z" fill="#2fb14b"/>
<path id="Vector_3" opacity="0.8" fill-rule="evenodd" clip-rule="evenodd" d="M121.242 26.5075V31.2602H119.894V26.5075H117.227V25.4743H123.909V26.5075H121.242ZM109.218 31.2602V25.4743H110.576V27.7178H114.777V25.4743H116.145V31.2602H114.777V28.7707H110.576V31.2602H109.218ZM101.788 31.2602V25.4743H107.692V26.4583H103.107V27.7473H105.784V28.7313H103.107V30.1778H107.752V31.2602H101.788ZM92.9325 31.2602V25.4743H94.0247L96.7504 28.9675L99.4269 25.4743H100.509V31.2602H99.2202V27.6784C99.2147 27.5932 99.2147 27.5078 99.2202 27.4226C99.2202 27.3373 99.2202 27.2192 99.2202 27.0683C99.2202 27.1372 99.1514 27.1963 99.1218 27.2651L99.0333 27.4324C98.9929 27.5163 98.9434 27.5955 98.8857 27.6686L96.7504 30.5714H96.4749L94.3002 27.6194C94.2227 27.5223 94.1567 27.4167 94.1034 27.3045C94.0414 27.2201 93.9917 27.1274 93.9558 27.029V27.3635V31.2602H92.9325ZM86.0445 31.2602V26.5567H89.8919V31.2602H91.24V25.4743H84.7062V31.2602H86.0445ZM77.1885 30.1778H81.6263V26.5075H77.2278L77.1885 30.1778ZM75.8404 26.842C75.7924 26.461 75.8947 26.0762 76.1258 25.7695C76.4588 25.53 76.8698 25.4246 77.277 25.4743H81.5968C82.001 25.4232 82.4095 25.5288 82.7382 25.7695C82.9772 26.0728 83.0868 26.4583 83.0433 26.842V29.8924C83.0863 30.2792 82.9768 30.6674 82.7382 30.9748C82.406 31.2076 81.9995 31.3092 81.5968 31.2602H77.3164C76.9108 31.307 76.5019 31.2057 76.1651 30.9748C75.9353 30.6637 75.8332 30.2764 75.8798 29.8924L75.8404 26.842ZM71.7568 25.4743L75.0926 31.2602H73.5477L71.2058 27.0782L68.9721 31.2602H67.624L70.7728 25.4743H71.7568ZM60.8049 31.2602V25.4743H66.7089V26.4583H62.1628V27.7473H64.8688V28.7313H62.1628V30.1778H66.8368V31.2602H60.8049ZM53.0608 31.2602V25.4743H57.9808C58.3293 25.4505 58.6756 25.544 58.9648 25.7399C59.0718 25.8536 59.1535 25.9887 59.2044 26.1363C59.2553 26.2838 59.2742 26.4406 59.26 26.596V27.3242C59.2663 27.4474 59.2468 27.5705 59.2028 27.6858C59.1587 27.801 59.0911 27.9057 59.0042 27.9933C58.8007 28.1785 58.5406 28.2894 58.2662 28.3082C58.5582 28.3337 58.8326 28.4587 59.0435 28.6624C59.2259 28.8716 59.321 29.1428 59.3092 29.4201V30.1581C59.3171 30.325 59.2825 30.4911 59.2084 30.6409C59.1344 30.7907 59.0235 30.9191 58.8861 31.0142C58.4947 31.2262 58.0508 31.3218 57.6069 31.2897L53.0608 31.2602ZM57.4593 28.751H54.4187V30.2171H57.4986C57.6765 30.2404 57.8571 30.2022 58.0103 30.1089C58.0621 30.0563 58.1013 29.9927 58.1252 29.9229C58.149 29.853 58.1568 29.7787 58.1481 29.7055V29.2922C58.1568 29.2189 58.149 29.1446 58.1252 29.0748C58.1013 29.0049 58.0621 28.9413 58.0103 28.8887C57.8601 28.7865 57.6798 28.738 57.4986 28.751H57.4593ZM57.4593 26.4189H54.4187V27.7965H57.4986C57.6643 27.8081 57.8301 27.7777 57.9808 27.7079C58.0281 27.6688 58.0652 27.6188 58.0892 27.5623C58.1132 27.5058 58.1232 27.4444 58.1186 27.3832V26.8223C58.121 26.7614 58.1099 26.7007 58.0861 26.6445C58.0622 26.5884 58.0263 26.5382 57.9808 26.4976C57.8278 26.4363 57.6632 26.4094 57.4986 26.4189H57.4593ZM45.6611 31.2602V25.4743H51.5651V26.4583H47.0092V27.7473H49.6857V28.7313H47.0092V30.1778H51.6537V31.2602H45.6611ZM44.559 31.2602V30.1778H43.8309V25.4743H40.0917C39.2098 25.4177 38.3368 25.6796 37.6317 26.2123C37.3481 26.4796 37.1263 26.8057 36.9818 27.1678C36.8373 27.5298 36.7737 27.919 36.7953 28.3082V30.1778H36.0376V31.2602H44.559ZM42.473 30.1778H38.1434V28.3082C38.1282 28.0615 38.1661 27.8145 38.2543 27.5837C38.3426 27.3528 38.4792 27.1436 38.655 26.9699C39.0509 26.6335 39.5638 26.4672 40.0818 26.5075H42.473V30.1778V30.1778Z" fill="#2fb14b"/>
</g>
</svg>
