<svg width="24" height="25" viewBox="0 0 24 25" xmlns="http://www.w3.org/2000/svg">
<path fill-rule="evenodd" clip-rule="evenodd" d="M9 11.291C10.1 11.291 11 10.391 11 9.29102C11 8.19102 10.1 7.29102 9 7.29102C7.9 7.29102 7 8.19102 7 9.29102C7 10.391 7.9 11.291 9 11.291Z" fill="#ffffff"/>
<path fill-rule="evenodd" clip-rule="evenodd" d="M15 7.29102C13.9 7.29102 13 8.19102 13 9.29102C13 10.391 13.9 11.291 15 11.291C16.1 11.291 17 10.391 17 9.29102C17 8.19102 16.1 7.29102 15 7.29102Z" fill="#ffffff"/>
<path fill-rule="evenodd" clip-rule="evenodd" d="M9 13.291C7.9 13.291 7 14.191 7 15.291C7 16.391 7.9 17.291 9 17.291C10.1 17.291 11 16.391 11 15.291C11 14.191 10.1 13.291 9 13.291Z" fill="#ffffff"/>
<path fill-rule="evenodd" clip-rule="evenodd" d="M15 13.291C13.9 13.291 13 14.191 13 15.291C13 16.391 13.9 17.291 15 17.291C16.1 17.291 17 16.391 17 15.291C17 14.191 16.1 13.291 15 13.291Z" fill="#ffffff"/>
</svg>
