<svg width="16" height="17" viewBox="0 0 16 17" fill="none" xmlns="http://www.w3.org/2000/svg">
<path fill-rule="evenodd" clip-rule="evenodd" d="M4 1.13037H12C13.6569 1.13037 15 2.47352 15 4.13037V12.1304C15 13.7872 13.6569 15.1304 12 15.1304H9.25V10.4429H11.1141L11.4688 8.13037H9.25V6.6297C9.25 5.99704 9.55992 5.38037 10.5537 5.38037H11.5625V3.41162C11.5625 3.41162 10.647 3.25537 9.77172 3.25537C7.94434 3.25537 6.75 4.36287 6.75 6.36787V8.13037H4.71875V10.4429H6.75V15.1304H4C2.34315 15.1304 1 13.7872 1 12.1304V4.13037C1 2.47352 2.34315 1.13037 4 1.13037ZM6.75 16.1304H4C1.79086 16.1304 0 14.3395 0 12.1304V4.13037C0 1.92123 1.79086 0.130371 4 0.130371H12C14.2091 0.130371 16 1.92123 16 4.13037V12.1304C16 14.3395 14.2091 16.1304 12 16.1304H9.25H8H6.75Z" fill="white"/>
</svg>
