<svg width="20" height="20" viewBox="0 0 20 20" fill="none" xmlns="http://www.w3.org/2000/svg">
<path d="M17.1665 3.41667V5.25C17.1665 5.91667 16.7498 6.75 16.3332 7.16667L12.7498 10.3333C12.2498 10.75 11.9165 11.5833 11.9165 12.25V15.8333C11.9165 16.3333 11.5832 17 11.1665 17.25L9.99982 18C8.91649 18.6667 7.41649 17.9167 7.41649 16.5833V12.1667C7.41649 11.5833 7.08316 10.8333 6.74982 10.4167L6.35816 10.0083C6.09982 9.73333 6.04982 9.31667 6.25816 8.99167L10.5248 2.14167C10.6748 1.9 10.9415 1.75 11.2332 1.75H15.4998C16.4165 1.75 17.1665 2.5 17.1665 3.41667Z" fill="#396939"/>
<path d="M8.62467 3.025L5.66634 7.76667C5.38301 8.225 4.73301 8.29167 4.35801 7.9L3.58301 7.08333C3.16634 6.66667 2.83301 5.91667 2.83301 5.41667V3.5C2.83301 2.5 3.58301 1.75 4.49967 1.75H7.91634C8.56634 1.75 8.96634 2.46667 8.62467 3.025Z" fill="#396939"/>
</svg>
