<svg width="20" height="20" viewBox="0 0 20 20" fill="none" xmlns="http://www.w3.org/2000/svg">
<path d="M2.69163 0.833252H9.46663C10.0333 0.833252 10.4916 1.29992 10.4916 1.87492V3.01659C10.4916 3.43325 10.2333 3.94992 9.97496 4.20825L7.77496 6.19159C7.46663 6.44992 7.26663 6.96658 7.26663 7.38325V9.61658C7.26663 9.92492 7.05829 10.3416 6.80829 10.4999L6.08329 10.9749C5.41663 11.3916 4.49163 10.9249 4.49163 10.0916V7.33325C4.49163 6.96659 4.28329 6.49992 4.08329 6.24158L2.13329 4.15825C1.87496 3.89992 1.66663 3.43325 1.66663 3.12492V1.92492C1.66663 1.29992 2.12496 0.833252 2.69163 0.833252Z" fill="#BE252A"/>
<path d="M14.1666 1.66675H12.1666C11.9333 1.66675 11.75 1.85008 11.75 2.08341C11.75 2.48341 11.75 3.01675 11.75 3.01675C11.75 3.84175 11.3083 4.65008 10.875 5.09175L8.60829 7.11675C8.58329 7.17508 8.54163 7.25841 8.51663 7.32508V9.61675C8.51663 10.3751 8.06663 11.2001 7.44996 11.5751L6.76663 12.0167C6.38329 12.2584 5.95829 12.3751 5.53329 12.3751C5.14996 12.3751 4.76663 12.2751 4.41663 12.0834C4.00756 11.8569 3.69354 11.521 3.49253 11.126C3.36256 10.8707 3.33329 10.5796 3.33329 10.2931V8.50841C3.33329 8.40008 3.29163 8.29175 3.20829 8.21675L2.37496 7.38341C2.11663 7.11675 1.66663 7.30008 1.66663 7.67508V14.1667C1.66663 16.4667 3.53329 18.3334 5.83329 18.3334H14.1666C16.4666 18.3334 18.3333 16.4667 18.3333 14.1667V5.83341C18.3333 3.53341 16.4666 1.66675 14.1666 1.66675ZM15 14.7917H9.16663C8.82496 14.7917 8.54163 14.5084 8.54163 14.1667C8.54163 13.8251 8.82496 13.5417 9.16663 13.5417H15C15.3416 13.5417 15.625 13.8251 15.625 14.1667C15.625 14.5084 15.3416 14.7917 15 14.7917ZM15 11.4584H10.8333C10.4916 11.4584 10.2083 11.1751 10.2083 10.8334C10.2083 10.4917 10.4916 10.2084 10.8333 10.2084H15C15.3416 10.2084 15.625 10.4917 15.625 10.8334C15.625 11.1751 15.3416 11.4584 15 11.4584Z" fill="#BE252A"/>
</svg>
