<svg width="16" height="17" viewBox="0 0 16 17" fill="none" xmlns="http://www.w3.org/2000/svg">
<path fill-rule="evenodd" clip-rule="evenodd" d="M8.00002 0.130371C5.82733 0.130371 5.5549 0.13958 4.70161 0.178513C3.8501 0.217383 3.26856 0.3526 2.75966 0.550377C2.23359 0.754822 1.78745 1.02837 1.34271 1.47311C0.897966 1.91786 0.624419 2.364 0.419974 2.89007C0.222197 3.39893 0.0869798 3.98047 0.0481104 4.83198C0.0091775 5.68527 0 5.9577 0 8.13039C0 10.303 0.0091775 10.5755 0.0481104 11.4288C0.0869798 12.2803 0.222197 12.8618 0.419974 13.3707C0.624419 13.8967 0.897966 14.3429 1.34271 14.7877C1.78745 15.2324 2.23359 15.506 2.75966 15.7104C3.26856 15.9081 3.8501 16.0434 4.70161 16.0822C5.5549 16.1212 5.82733 16.1304 8.00002 16.1304C10.1727 16.1304 10.4451 16.1212 11.2984 16.0822C12.1499 16.0434 12.7314 15.9081 13.2403 15.7104C13.7664 15.506 14.2125 15.2324 14.6573 14.7877C15.102 14.3429 15.3756 13.8967 15.58 13.3707C15.7778 12.8618 15.913 12.2803 15.9519 11.4288C15.9908 10.5755 16 10.303 16 8.13039C16 5.9577 15.9908 5.68527 15.9519 4.83198C15.913 3.98047 15.7778 3.39893 15.58 2.89007C15.3756 2.364 15.102 1.91786 14.6573 1.47311C14.2125 1.02837 13.7664 0.754822 13.2403 0.550377C12.7314 0.3526 12.1499 0.217383 11.2984 0.178513C10.4451 0.13958 10.1727 0.130371 8.00002 0.130371ZM8.00002 1.57184C10.1361 1.57184 10.3891 1.57997 11.2327 1.61846C12.0127 1.65406 12.4363 1.78438 12.7182 1.89391C13.0916 2.03904 13.3581 2.21242 13.638 2.49235C13.918 2.77228 14.0913 3.03881 14.2365 3.4122C14.346 3.6941 14.4763 4.11769 14.5119 4.89768C14.5504 5.74125 14.5586 5.99429 14.5586 8.13039C14.5586 10.2665 14.5504 10.5195 14.5119 11.3631C14.4763 12.1431 14.346 12.5666 14.2365 12.8485C14.0913 13.222 13.918 13.4885 13.638 13.7684C13.3581 14.0483 13.0916 14.2217 12.7182 14.3668C12.4363 14.4764 12.0127 14.6067 11.2327 14.6423C10.3892 14.6808 10.1362 14.6889 8.00002 14.6889C5.86375 14.6889 5.61079 14.6808 4.76731 14.6423C3.98732 14.6067 3.56373 14.4764 3.28183 14.3668C2.90841 14.2217 2.64191 14.0483 2.36195 13.7684C2.08202 13.4885 1.90863 13.222 1.76354 12.8485C1.65398 12.5666 1.52366 12.1431 1.48806 11.3631C1.44957 10.5195 1.44144 10.2665 1.44144 8.13039C1.44144 5.99429 1.44957 5.74125 1.48806 4.89768C1.52366 4.11769 1.65398 3.6941 1.76354 3.4122C1.90863 3.03881 2.08202 2.77228 2.36195 2.49235C2.64191 2.21242 2.90841 2.03904 3.28183 1.89391C3.56373 1.78438 3.98732 1.65406 4.76731 1.61846C5.61088 1.57997 5.86391 1.57184 8.00002 1.57184ZM7.99972 10.7967C6.52694 10.7967 5.33304 9.60285 5.33304 8.13009C5.33304 6.65731 6.52694 5.46341 7.99972 5.46341C9.47247 5.46341 10.6664 6.65731 10.6664 8.13009C10.6664 9.60285 9.47247 10.7967 7.99972 10.7967ZM7.99972 4.02197C5.73085 4.02197 3.8916 5.86122 3.8916 8.13009C3.8916 10.3989 5.73085 12.2382 7.99972 12.2382C10.2686 12.2382 12.1078 10.3989 12.1078 8.13009C12.1078 5.86122 10.2686 4.02197 7.99972 4.02197ZM12.2683 4.81694C12.7985 4.81694 13.2283 4.38716 13.2283 3.85696C13.2283 3.32676 12.7985 2.89697 12.2683 2.89697C11.7381 2.89697 11.3083 3.32676 11.3083 3.85696C11.3083 4.38716 11.7381 4.81694 12.2683 4.81694Z" fill="white"/>
</svg>
