<svg width="121" height="71" viewBox="0 0 121 71" fill="none" xmlns="http://www.w3.org/2000/svg">
<path d="M60.3641 0.22129H119.786C120.746 0.22129 120.598 0.124909 120.598 1.05445C120.598 4.44491 120.598 7.83538 120.598 11.2258C120.598 11.6542 120.557 11.8255 120.015 11.8191C117.102 11.7849 114.19 11.8298 111.275 11.8298C108.36 11.8298 105.412 11.8063 102.48 11.8063C99.3362 11.8063 96.1942 11.832 93.0565 11.832C89.9187 11.832 86.7703 11.802 83.6326 11.7998C80.7197 11.7998 77.8069 11.8277 74.894 11.8277C71.9469 11.8277 68.9977 11.8041 66.0505 11.802C63.1548 11.802 60.2677 11.817 57.3656 11.8148C54.1893 11.8148 51.0108 11.7977 47.8346 11.7998C43.3946 11.7998 38.9568 11.8277 34.519 11.832C31.3748 11.832 28.2328 11.8063 25.0951 11.8063C21.9574 11.8063 18.8111 11.832 15.6712 11.832C12.7412 11.832 9.81123 11.8127 6.87911 11.8041C6.08237 11.8041 5.28562 11.8191 4.48887 11.8041C4.02196 11.8041 3.84633 11.9669 3.86989 12.4702C3.91915 13.3055 3.88274 14.1451 3.88488 14.9847C3.88488 15.7043 3.88488 15.7065 4.58311 15.7065C9.34646 15.7065 14.112 15.7065 18.8753 15.7065C19.3551 15.7065 19.5543 15.8179 19.535 16.3276C19.4986 17.255 19.5093 18.1845 19.52 19.1119C19.52 19.4803 19.3872 19.6024 19.0124 19.6003C12.8612 19.5917 6.71134 19.5917 0.562954 19.6003C0.134594 19.6003 0.0489227 19.4568 0.0489227 19.0798C0.0603456 15.5458 0.0603456 12.0126 0.0489227 8.48006C0.0489227 8.0517 0.181714 7.91891 0.599365 7.93819C1.2419 7.96817 1.88444 7.93819 2.52698 7.93819C40.2512 7.93819 77.9746 7.93819 115.697 7.93819C116.843 7.93819 116.708 8.13951 116.717 6.92083C116.717 6.15407 116.695 5.38516 116.73 4.6184C116.749 4.17505 116.606 4.04654 116.158 4.04654C111.489 4.06153 106.82 4.04654 102.148 4.04654C96.3741 4.04654 90.5991 4.04226 84.8234 4.03369C78.942 4.03369 73.0599 4.03369 67.1771 4.03369H37.449C29.0903 4.03369 20.7308 4.03369 12.3707 4.03369C8.48546 4.03369 4.60024 4.03369 0.715021 4.0444C0.211699 4.0444 0.0232211 3.91375 0.0489227 3.38687C0.0896169 2.47874 0.0789079 1.56634 0.0489227 0.658216C0.0360719 0.27055 0.171005 0.165605 0.53511 0.189165C0.96347 0.217008 1.39183 0.189165 1.82019 0.189165L60.3641 0.22129Z" fill="#3C6A3A"/>
<path d="M60.2676 70.1236H0.738503C0.0381355 70.1236 0.035994 70.1236 0.035994 69.4468C0.035994 68.5536 0.0488447 67.6626 0.035994 66.7695C0.035994 66.3711 0.128091 66.1998 0.573585 66.2105C1.78584 66.2405 3.00024 66.2105 4.21464 66.2105H113.843C114.646 66.2105 115.449 66.2105 116.25 66.2255C116.567 66.2255 116.706 66.1205 116.702 65.7971C116.702 64.7819 116.689 63.7646 116.702 62.7472C116.702 62.4474 116.601 62.3338 116.299 62.3424C115.693 62.3574 115.087 62.3424 114.479 62.3424H0.989094C0.0252851 62.3424 0.0295685 62.3424 0.0317103 61.3807C0.0317103 58.0074 0.0445611 54.6341 0.0317103 51.2629C0.0317103 50.7831 0.173069 50.661 0.639981 50.6675C2.86959 50.6889 5.10135 50.6825 7.33096 50.6675C7.69292 50.6675 7.84499 50.766 7.83642 51.1472C7.81786 52.1467 7.81786 53.1462 7.83642 54.1458C7.83642 54.5184 7.67364 54.5934 7.35023 54.5891C6.38642 54.5891 5.42261 54.5998 4.46095 54.5891C4.10755 54.5891 3.93407 54.6791 3.94263 55.0667C3.95977 56.0134 3.95763 56.9579 3.94263 57.9046C3.94263 58.2923 4.09042 58.4615 4.48022 58.4422C4.81863 58.4251 5.15917 58.4422 5.49758 58.4422H119.891C120.613 58.4422 120.613 58.4422 120.613 59.149C120.613 62.5759 120.613 66.0027 120.613 69.4296C120.613 70.1278 120.613 70.13 119.893 70.13L60.2676 70.1236Z" fill="#3C6A3A"/>
<path d="M99.1926 46.8355H78.5307C77.7382 46.8355 77.8025 46.9533 77.7982 46.0816C77.7982 45.242 77.8239 44.4025 77.7875 43.565C77.7661 43.0488 77.886 42.8604 78.4579 42.8689C80.6146 42.8968 82.7736 42.8475 84.9304 42.8561C85.4208 42.8561 85.5729 42.7083 85.5729 42.2135C85.5586 37.4844 85.5586 32.7561 85.5729 28.0284C85.5729 27.6001 85.4487 27.4223 84.9989 27.4351C84.1079 27.4608 83.2162 27.4608 82.3238 27.4351C81.8762 27.4223 81.7434 27.5829 81.7455 28.022C81.7626 31.4831 81.7455 34.9443 81.7712 38.4054C81.7712 38.9237 81.6234 39.0908 81.1051 39.0694C80.197 39.033 79.2846 39.0308 78.3765 39.0694C77.8839 39.0929 77.7875 38.9109 77.7875 38.459C77.8025 34.034 77.7875 29.6091 77.7875 25.1798C77.7875 24.7343 77.8025 24.2867 77.7875 23.8412C77.7768 23.5349 77.901 23.445 78.1987 23.4471C81.8026 23.4471 85.4066 23.4471 89.0105 23.4471C89.5545 23.4471 89.5481 23.7448 89.5481 24.1368C89.5395 30.0952 89.5395 36.0544 89.5481 42.0144C89.5481 42.8368 89.5674 42.8711 90.3705 42.8711C91.103 42.8818 91.8334 42.8818 92.5659 42.8711C93.2984 42.8604 93.3519 42.8261 93.3541 42.0872C93.3541 36.0901 93.3541 30.0931 93.3541 24.0961C93.3541 23.5649 93.519 23.4257 94.0094 23.4385C94.9361 23.4628 95.8642 23.4628 96.7938 23.4385C97.2221 23.4257 97.3549 23.6142 97.3528 24.0061C97.3399 27.7328 97.3307 31.461 97.3249 35.1906C97.3249 37.5101 97.3249 39.8297 97.3121 42.1493C97.3121 42.6376 97.432 42.8518 97.9653 42.8539C98.8221 42.8539 99.6788 42.8668 100.536 42.8539C101.017 42.8539 101.157 42.6912 101.157 42.2114C101.139 36.2529 101.134 30.2937 101.142 24.3338C101.142 23.355 101.039 23.4557 102.035 23.4578C102.857 23.4578 103.678 23.4835 104.498 23.4578C104.993 23.4364 105.125 23.6056 105.125 24.1004C105.108 29.9874 105.108 35.8752 105.125 41.7638C105.125 43.0617 105.005 42.8347 106.246 42.8582C106.924 42.8582 107.603 42.8261 108.28 42.8582C108.805 42.8861 108.94 42.689 108.938 42.1814C108.923 36.33 108.938 30.4765 108.938 24.6187C108.938 23.4514 108.938 23.4514 110.084 23.4514H119.827C120.823 23.4514 120.683 23.4321 120.683 24.2717C120.683 31.6038 120.688 38.9366 120.696 46.2701C120.696 46.7863 120.482 46.8377 120.054 46.8377C113.089 46.832 106.135 46.8312 99.1926 46.8355ZM116.678 35.1477C116.678 32.7596 116.678 30.3694 116.678 27.9813C116.678 27.5337 116.526 27.3859 116.087 27.3987C115.198 27.4223 114.305 27.418 113.414 27.3987C113.011 27.3987 112.838 27.5122 112.838 27.9449C112.851 32.7397 112.851 37.5359 112.838 42.3335C112.838 42.7618 113.018 42.8882 113.418 42.8796C114.275 42.8604 115.132 42.8389 115.989 42.8796C116.526 42.9075 116.693 42.7511 116.687 42.2028C116.661 39.8554 116.678 37.5016 116.678 35.1477Z" fill="#B63D41"/>
<path d="M19.5435 35.1967V46.1199C19.5435 46.8395 19.5435 46.8417 18.8495 46.8417C12.764 46.8417 6.67913 46.8452 0.594999 46.8524C0.121661 46.8524 -0.0175555 46.7303 0.00172068 46.2591C0.0381312 45.3146 0.0274222 44.3679 0.00172068 43.4212C0.00172068 42.9929 0.128087 42.8322 0.586431 42.8387C2.76464 42.8622 4.94071 42.8387 7.11677 42.8579C7.61795 42.8579 7.8 42.7166 7.8 42.1918C7.78287 37.4799 7.78287 32.7679 7.8 28.056C7.8 27.5377 7.61367 27.4134 7.15747 27.4306C6.31788 27.4563 5.4783 27.4713 4.64085 27.4306C4.10112 27.4027 3.97047 27.6447 3.97261 28.1159C3.98761 30.9174 3.98975 33.7189 3.99831 36.5204C3.99831 37.2143 3.98761 37.9104 3.99831 38.6065C3.99831 38.9277 3.8848 39.0605 3.56995 39.0584C2.51833 39.0584 1.46457 39.0477 0.412946 39.0584C0.0981016 39.0584 0.00814595 38.9363 0.0145713 38.6493C0.0145713 38.0967 0.0145713 37.5441 0.0145713 36.9894C0.0145713 32.6908 0.0145715 28.3901 0.00172068 24.0894C0.00172068 23.6182 0.110952 23.4468 0.616416 23.4468C4.16466 23.464 7.71505 23.464 11.2676 23.4468C11.8052 23.4468 11.7602 23.7681 11.7602 24.1172C11.7602 29.9886 11.7602 35.8585 11.7602 41.7271C11.7602 42.9136 11.6702 42.8258 12.8311 42.8622C13.5807 42.8858 14.3303 42.8022 15.0757 42.8472C15.504 42.8729 15.5833 42.6952 15.579 42.3182C15.564 40.6776 15.579 39.0348 15.579 37.3921C15.579 32.9478 15.579 28.5058 15.5683 24.0637C15.5683 23.5561 15.7247 23.4211 16.2108 23.4447C17.119 23.479 18.0314 23.4725 18.9395 23.4447C19.4021 23.4318 19.5563 23.5882 19.5542 24.0615C19.5392 27.7711 19.5542 31.4828 19.5542 35.1989L19.5435 35.1967Z" fill="#B63D41"/>
<path d="M58.4257 35.1972C58.4257 38.8726 58.4257 42.5479 58.4257 46.2232C58.4257 46.6687 58.3443 46.8486 57.8474 46.8486C51.7261 46.8315 45.6056 46.8315 39.4858 46.8486C39.0274 46.8486 38.8861 46.7501 38.8882 46.2596C38.9111 42.7642 38.9111 39.2659 38.8882 35.7648C38.8882 35.2315 39.021 35.0495 39.5757 35.0816C40.4646 35.133 41.3598 35.1244 42.2508 35.0816C42.7649 35.0602 42.8805 35.2636 42.8762 35.737C42.857 37.8788 42.8762 40.0206 42.8591 42.1624C42.8591 42.6635 42.9919 42.8499 43.5166 42.8456C46.9606 42.8285 50.4046 42.8285 53.8487 42.8456C54.322 42.8456 54.4719 42.6785 54.4569 42.2202C54.4291 41.417 54.4569 40.6138 54.4569 39.8107C54.4569 39.0889 54.4334 39.0568 53.7094 39.0546C51.9596 39.0546 50.2119 39.0546 48.4642 39.0546C48.0894 39.0389 47.7141 39.0424 47.3397 39.0653C46.8321 39.121 46.6672 38.9497 46.6715 38.4228C46.6972 35.7841 46.6865 33.1432 46.6865 30.4981C46.6865 28.3392 46.6865 26.1803 46.6865 24.0213C46.6865 23.593 46.7764 23.4281 47.2455 23.4302C50.7431 23.4516 54.2385 23.4431 57.7403 23.4473C58.4407 23.4473 58.4407 23.4473 58.4407 24.1584C58.4407 27.8337 58.4407 31.5098 58.4407 35.1865L58.4257 35.1972ZM50.606 31.2885C50.606 32.3765 50.606 33.4645 50.606 34.5526C50.606 34.9017 50.6788 35.1373 51.105 35.1308C52.0688 35.1166 53.0319 35.1166 53.9943 35.1308C54.337 35.1308 54.4655 35.0066 54.4655 34.6596C54.4655 32.4122 54.4719 30.1654 54.4848 27.9194C54.4848 27.5082 54.322 27.399 53.945 27.4054C53.0348 27.4225 52.1245 27.4332 51.2164 27.4054C50.7323 27.3904 50.5974 27.5831 50.606 28.0329C50.6188 29.1124 50.606 30.2004 50.606 31.2885Z" fill="#B63D41"/>
<path d="M73.9686 39.046C73.9686 43.0626 73.9686 47.0778 73.9686 51.0915C73.9686 52.1067 73.9686 53.1219 73.9879 54.1371C73.9879 54.5655 73.8016 54.6319 73.4268 54.6298C69.8778 54.6148 66.3267 54.6019 62.7756 54.6298C62.3323 54.6298 62.2252 54.5077 62.2337 54.0965C62.2573 53.1155 62.2552 52.1346 62.2337 51.1536C62.2337 50.7617 62.3473 50.631 62.7542 50.6332C64.9667 50.6503 67.1792 50.6332 69.3938 50.6439C69.8521 50.6439 70.0363 50.5089 70.0192 50.0313C69.9892 49.1596 69.9849 48.2836 70.0192 47.4098C70.0385 46.9386 69.8457 46.8336 69.4238 46.8358C67.2284 46.8486 65.0331 46.8358 62.8399 46.8529C62.3837 46.8529 62.2295 46.7629 62.2295 46.2725C62.2466 39.1531 62.2466 32.0331 62.2295 24.9123C62.2295 24.5739 62.2509 24.2334 62.2295 23.8971C62.208 23.5608 62.3451 23.4688 62.6578 23.4688C64.1035 23.4688 65.5492 23.4688 66.995 23.4688C69.0839 23.4688 71.1715 23.4688 73.2576 23.4688C73.9558 23.4688 74.0029 23.5266 73.9986 24.2355C73.9815 26.2145 73.9694 28.1943 73.9622 30.1747C73.9622 33.1368 73.9622 36.0989 73.9622 39.061L73.9686 39.046ZM66.1854 35.1137C66.1854 37.5039 66.1854 39.8942 66.1854 42.2844C66.1854 42.7128 66.2882 42.8948 66.7551 42.8777C67.6632 42.8456 68.5756 42.852 69.4837 42.8777C69.9249 42.8948 70.0363 42.7128 70.0363 42.3166C70.0363 37.5161 70.0363 32.7163 70.0363 27.9173C70.0363 27.551 69.9142 27.4011 69.548 27.4032C68.6377 27.4032 67.7275 27.4246 66.8172 27.3904C66.316 27.3711 66.1747 27.5574 66.1747 28.0329C66.1982 30.4017 66.1854 32.7577 66.1854 35.1137Z" fill="#B63D41"/>
<path d="M60.244 19.6115H31.8523C31.1541 19.6115 31.1498 19.6116 31.1455 18.924C31.1455 18.0502 31.1734 17.1742 31.1327 16.3025C31.1091 15.8099 31.2869 15.6835 31.7409 15.722C32.1479 15.7585 32.5612 15.722 32.9703 15.722H87.7789C88.2073 15.722 88.6356 15.722 89.064 15.722C89.3703 15.722 89.5116 15.8163 89.5052 16.1504C89.4859 17.1313 89.4817 18.1123 89.5052 19.0932C89.5159 19.5216 89.3274 19.6073 88.9591 19.6073C85.1609 19.5987 81.3642 19.5987 77.569 19.6073L60.244 19.6115Z" fill="#3C6A3A"/>
<path d="M99.1818 54.589C92.2767 54.589 85.3715 54.589 78.4685 54.604C77.8988 54.604 77.781 54.4348 77.8045 53.9144C77.8452 53.0234 77.8388 52.1303 77.8045 51.2393C77.7874 50.7638 77.9438 50.646 78.4128 50.646C90.1356 50.6617 101.858 50.6653 113.579 50.6567C115.701 50.6567 117.824 50.6696 119.949 50.6567C120.448 50.6567 120.658 50.7724 120.632 51.3164C120.591 52.2052 120.589 53.1005 120.632 53.9893C120.66 54.5077 120.469 54.6062 119.989 54.6062C114.834 54.5912 109.677 54.6062 104.521 54.6062L99.1818 54.589Z" fill="#3C6A3A"/>
<path d="M40.82 50.6673H57.6823C58.3998 50.6673 58.3998 50.6673 58.3998 51.3784C58.3998 52.3058 58.3849 53.2332 58.3998 54.1627C58.3998 54.4947 58.2799 54.6061 57.9715 54.5911C57.3289 54.5804 56.6864 54.5911 56.0439 54.5911C45.3534 54.5911 34.6652 54.5911 23.979 54.5911C23.4821 54.5911 23.3365 54.4562 23.3536 53.9657C23.3922 53.0383 23.3772 52.1088 23.3536 51.1814C23.3536 50.7701 23.4736 50.6395 23.9062 50.6416C29.5434 50.6559 35.1835 50.6559 40.8264 50.6416L40.82 50.6673Z" fill="#3C6A3A"/>
<path d="M23.3408 27.3452C23.3408 23.6698 23.3408 19.9967 23.3408 16.3213C23.3408 15.8501 23.4393 15.6617 23.9555 15.6788C24.9001 15.7238 25.8467 15.7088 26.7913 15.6788C27.2196 15.6659 27.3503 15.8394 27.3417 16.2399C27.3246 17.0967 27.3417 17.9534 27.3417 18.8101C27.3417 25.2355 27.3417 31.6566 27.3417 38.0734C27.3417 38.2169 27.3288 38.3604 27.3417 38.5018C27.3803 38.9302 27.2025 39.0672 26.7827 39.0565C25.8917 39.033 24.9986 39.0565 24.1076 39.0565C23.3451 39.0565 23.3451 39.0565 23.3451 38.3112C23.3451 35.4212 23.3487 32.5312 23.3558 29.6412C23.3558 28.8744 23.3558 28.1076 23.3558 27.3409L23.3408 27.3452Z" fill="#B63D41"/>
<path d="M35.093 39.0483C35.093 41.4385 35.078 43.8266 35.093 46.2169C35.093 46.7223 34.9281 46.8444 34.4505 46.8423C30.9208 46.8251 27.3904 46.8251 23.8593 46.8423C23.4116 46.8423 23.3174 46.6923 23.326 46.2918C23.3474 45.4008 23.326 44.5099 23.326 43.6189C23.326 42.8799 23.3538 42.8478 24.1184 42.8457C26.1339 42.8457 28.1493 42.8457 30.1647 42.8457C31.2763 42.8457 31.1135 42.8949 31.1157 41.899C31.1157 38.5292 31.1157 35.1595 31.1157 31.7897C31.1157 31.3871 31.1949 31.2157 31.6426 31.2329C32.6042 31.2671 33.5702 31.2628 34.5318 31.2329C34.988 31.22 35.1016 31.3956 35.0973 31.8261C35.0801 34.2335 35.0973 36.6409 35.0973 39.0483H35.093Z" fill="#B63D41"/>
<path d="M110.846 15.7195C113.894 15.7195 116.944 15.7195 119.994 15.7195C120.467 15.7195 120.656 15.8244 120.636 16.3406C120.589 17.2852 120.609 18.2318 120.624 19.1764C120.624 19.519 120.516 19.6411 120.159 19.639C114.384 19.6204 108.611 19.6111 102.838 19.6111C102.41 19.6111 101.981 19.6111 101.553 19.624C101.255 19.6347 101.135 19.5169 101.137 19.2192C101.137 18.204 101.159 17.1866 101.137 16.1714C101.137 15.773 101.296 15.7066 101.645 15.7088C104.712 15.7238 107.779 15.7195 110.846 15.7195Z" fill="#3C6A3A"/>
<path d="M15.6047 50.6333C16.7248 50.6333 17.8471 50.6462 18.9695 50.6333C19.3721 50.6333 19.5584 50.7318 19.5477 51.1666C19.5263 52.1647 19.5327 53.1606 19.5477 54.1651C19.5477 54.5142 19.4021 54.6449 19.0701 54.6449C16.757 54.6449 14.4431 54.6449 12.1286 54.6449C11.833 54.6449 11.6595 54.5464 11.6616 54.2165C11.6702 53.167 11.6702 52.1169 11.6616 51.0659C11.6616 50.6783 11.8758 50.6376 12.1842 50.6376C13.3237 50.6376 14.4631 50.6376 15.6111 50.6376L15.6047 50.6333Z" fill="#B63D41"/>
<path d="M42.8763 27.3798C42.8763 28.5021 42.8613 29.6265 42.8763 30.7488C42.8763 31.16 42.7692 31.3228 42.3366 31.3121C41.3556 31.2864 40.3747 31.2907 39.3937 31.3121C39.036 31.3121 38.8883 31.2222 38.8904 30.8345C38.9061 28.5171 38.9061 26.1996 38.8904 23.8822C38.8904 23.5524 39.0125 23.4539 39.3316 23.4539C40.3468 23.4667 41.3628 23.4667 42.3794 23.4539C42.7349 23.4539 42.8784 23.5759 42.8699 23.9572C42.8527 25.0988 42.8763 26.2382 42.8763 27.3798Z" fill="#B63D41"/>
<path d="M93.3521 17.6325C93.3521 17.1356 93.3628 16.6366 93.3521 16.1333C93.3521 15.827 93.4249 15.6835 93.7697 15.6899C94.8021 15.7092 95.8344 15.7028 96.8667 15.6899C97.1859 15.6899 97.3187 15.8077 97.3144 16.1183C97.3015 17.1335 97.2994 18.1487 97.3015 19.1639C97.3015 19.5044 97.1452 19.6394 96.8111 19.6372C95.7958 19.6272 94.7806 19.6272 93.7654 19.6372C93.4656 19.6372 93.3499 19.5194 93.3563 19.226C93.367 18.6906 93.3563 18.1551 93.3563 17.6218L93.3521 17.6325Z" fill="#B63D41"/>
<path d="M31.1348 25.4086C31.1348 24.8903 31.1348 24.3742 31.1348 23.8558C31.1348 23.5967 31.199 23.466 31.4946 23.4703C32.5462 23.4832 33.5978 23.4703 34.6495 23.4703C34.9665 23.4703 35.0992 23.5924 35.0971 23.9137C35.0843 24.9289 35.0778 25.9462 35.0843 26.9615C35.0843 27.2806 34.9643 27.4069 34.6409 27.4048C33.6257 27.3941 32.6083 27.3855 31.5953 27.4048C31.1883 27.4177 31.1155 27.2377 31.1262 26.8972C31.1412 26.3982 31.1262 25.8991 31.1262 25.3979L31.1348 25.4086Z" fill="#B63D41"/>
</svg>
