<svg width="18" height="18" viewBox="0 0 18 18" fill="none" xmlns="http://www.w3.org/2000/svg">
<path d="M13.6332 0.666626H4.3415C2.3165 0.666626 0.666504 2.31663 0.666504 4.34163V9.75829V9.92496C0.666504 11.9583 2.3165 13.6 4.3415 13.6H7.5415C7.99984 13.6 8.37484 13.975 8.37484 14.4333V15.2416C8.37484 15.7 7.99984 16.075 7.5415 16.075H5.52484C5.18317 16.075 4.89984 16.3583 4.89984 16.7C4.89984 17.0416 5.17484 17.3333 5.52484 17.3333H12.4832C12.8248 17.3333 13.1082 17.05 13.1082 16.7083C13.1082 16.3666 12.8248 16.0833 12.4832 16.0833H10.4665C10.0082 16.0833 9.63317 15.7083 9.63317 15.25V14.4416C9.63317 13.9833 10.0082 13.6083 10.4665 13.6083H13.6415C15.6748 13.6083 17.3165 11.9583 17.3165 9.93329V9.76663V4.34996C17.3082 2.31663 15.6582 0.666626 13.6332 0.666626Z" fill="#396939"/>
</svg>
