<svg width="17" height="17" viewBox="0 0 17 17" fill="none" xmlns="http://www.w3.org/2000/svg">
<path d="M16.5201 0.595588C16.0949 0.184079 15.4656 0.0318763 14.8789 0.192937L1.1968 3.93679C0.577744 4.09946 0.138964 4.56412 0.0207656 5.1536C-0.0999838 5.75436 0.321789 6.51779 0.872814 6.83669L5.15092 9.31058C5.58969 9.56505 6.15603 9.50143 6.51913 9.15676L11.418 4.51741C11.6646 4.27502 12.0727 4.27502 12.3193 4.51741C12.566 4.75015 12.566 5.12944 12.3193 5.37103L7.41199 10.0104C7.04804 10.3551 6.98001 10.8898 7.24787 11.3061L9.86184 15.3729C10.168 15.8553 10.6952 16.1299 11.2734 16.1299C11.3414 16.1299 11.418 16.1299 11.486 16.121C12.1493 16.0413 12.6765 15.6137 12.8721 15.0097L16.9282 2.14982C17.1068 1.60222 16.9452 1.00629 16.5201 0.595588Z" fill="white"/>
</svg>
