<svg width="62" height="62" viewBox="0 0 62 62" fill="none" xmlns="http://www.w3.org/2000/svg">
<g id="logo (1) 1" clip-path="url(#clip0_117_1933)">
<g id="Group 427320292">
<path id="Vector" d="M52.1108 52.5544C63.9835 40.6818 63.9835 21.4325 52.1108 9.55984C40.2382 -2.31275 20.989 -2.31276 9.11637 9.55984C-2.75624 21.4325 -2.75624 40.6818 9.11637 52.5544C20.989 64.427 40.2382 64.427 52.1108 52.5544Z" fill="#E4002B"/>
<path id="Vector_2" d="M13.1494 16.0361C13.1494 14.436 13.5668 14.0881 15.0278 14.0881H20.9412C24.6284 14.0881 29.9852 15.8274 29.9852 22.1582C29.9852 28.5587 24.5589 30.0891 20.8716 30.0891H18.9238V35.0982C18.9238 36.6982 18.5064 37.0462 17.0454 37.0462H15.0974C13.5668 37.0462 13.219 36.6288 13.219 35.0982V16.0361H13.1494ZM18.9238 24.941H20.5935C21.8457 24.941 23.8632 24.8019 23.8632 22.0887C23.8632 19.3755 21.8457 19.2362 20.5935 19.2362H18.9238V24.941Z" fill="white"/>
<path id="Vector_3" d="M31.376 19.0974C31.376 17.4277 32.6282 16.1754 34.2979 16.1754C35.9676 16.1754 37.2199 17.4277 37.2199 19.0974C37.2199 20.9061 35.9676 22.0193 34.2979 22.0193C32.5586 22.0888 31.376 20.9757 31.376 19.0974ZM31.5151 25.2194C31.5151 23.6193 31.9325 23.2715 33.3935 23.2715H34.7848C36.3154 23.2715 36.6632 23.689 36.6632 25.2194V32.2459C36.6632 32.6633 36.8024 32.8026 37.0111 32.8026H37.2199C37.5676 32.8026 37.846 32.9417 37.846 33.9156V35.5853C37.846 36.5593 37.5676 36.9071 36.8719 37.0462C36.1067 37.2549 35.6893 37.2549 35.1328 37.2549C32.9064 37.2549 31.376 36.7681 31.376 33.22V25.2194H31.5151Z" fill="white"/>
<path id="Vector_4" d="M39.7256 21.4627C39.7256 19.8626 40.143 19.5146 41.604 19.5146H42.7171C44.4564 19.5146 44.9433 19.9321 44.9433 21.4627V23.2714H45.7782C46.961 23.2714 47.3784 23.6194 47.3784 24.9411V25.6369C47.3784 26.8891 47.0304 27.3065 45.7782 27.3065H44.9433V30.4372C44.9433 32.733 45.8478 32.8721 46.4043 32.8721H46.8217C47.2391 32.8721 47.7262 33.1504 47.7262 34.0547V35.794C47.7262 36.9766 46.961 37.1159 46.6826 37.1854C46.4043 37.255 45.8478 37.255 45.5695 37.255C41.1171 37.255 39.7256 34.4721 39.7256 29.811V21.4627Z" fill="white"/>
<path id="Vector_5" d="M13.0791 41.4291C13.0791 41.0116 13.1487 40.942 13.5661 40.942H15.027C15.9315 40.942 17.2534 41.3594 17.2534 42.9595C17.2534 44.5597 15.9315 44.9075 15.027 44.9075H14.5401V46.1598C14.5401 46.5772 14.4705 46.6468 14.0531 46.6468H13.5661C13.2182 46.6468 13.0791 46.5772 13.0791 46.1598V41.4291ZM14.5401 43.5856H14.9575C15.2358 43.5856 15.7924 43.5162 15.7924 42.89C15.7924 42.1943 15.3053 42.1943 14.9575 42.1943H14.5401V43.5856Z" fill="white"/>
<path id="Vector_6" d="M17.8115 41.4291C17.8115 41.0116 17.881 40.942 18.2984 40.942H19.829C20.7335 40.942 22.0552 41.3594 22.0552 42.8204C22.0552 43.7249 21.6378 44.2118 21.0116 44.4205C21.4291 44.9075 21.5683 45.464 21.9857 45.464H22.0552C22.1944 45.464 22.2639 45.5336 22.2639 45.812V46.2988C22.2639 46.6468 21.9161 46.6468 21.6378 46.6468C20.0377 46.6468 20.0377 44.6292 19.342 44.6292H19.2029V46.0901C19.2029 46.5076 19.1332 46.5772 18.7158 46.5772H18.2984C17.9506 46.5772 17.8115 46.5076 17.8115 46.0901V41.4291ZM19.2725 43.4465H19.829C20.316 43.4465 20.5942 43.1682 20.5942 42.8204C20.5942 42.4726 20.3855 42.1943 19.829 42.1943H19.2725V43.4465Z" fill="white"/>
<path id="Vector_7" d="M25.393 40.8724C26.9933 40.8724 28.1759 41.9856 28.1759 43.7944C28.1759 45.6031 27.0627 46.7163 25.393 46.7163C23.793 46.7163 22.6104 45.6031 22.6104 43.7944C22.6104 41.9856 23.793 40.8724 25.393 40.8724ZM25.393 45.325C26.0888 45.325 26.6453 44.6988 26.6453 43.7249C26.6453 42.7508 26.1584 42.1943 25.393 42.1943C24.6974 42.1943 24.1408 42.8204 24.1408 43.7249C24.1408 44.6292 24.6974 45.325 25.393 45.325Z" fill="white"/>
<path id="Vector_8" d="M28.7334 41.4291C28.7334 41.0116 28.803 40.942 29.2204 40.942H30.8205C32.4902 40.942 33.8817 41.9159 33.8817 43.864C33.8817 45.7423 32.4902 46.6468 30.8901 46.6468H29.2204C28.8726 46.6468 28.7334 46.5772 28.7334 46.1598V41.4291ZM30.1944 45.3945H30.8205C31.7946 45.3945 32.3511 44.7684 32.3511 43.7943C32.3511 42.8204 31.864 42.1247 30.8205 42.1247H30.1944V45.3945Z" fill="white"/>
<path id="Vector_9" d="M38.9598 44.2814C38.9598 45.8814 38.1249 46.7163 36.664 46.7163C35.203 46.7163 34.3682 45.8814 34.3682 44.2814V41.4291C34.3682 41.0116 34.4378 40.942 34.8552 40.942H35.3422C35.69 40.942 35.8291 41.0116 35.8291 41.4291V44.2814C35.8291 45.2553 36.3858 45.3945 36.664 45.3945C36.9423 45.3945 37.4988 45.2553 37.4988 44.2814V41.4291C37.4988 41.0116 37.5684 40.942 37.9859 40.942H38.4729C38.8207 40.942 38.9598 41.0116 38.9598 41.4291V44.2814Z" fill="white"/>
<path id="Vector_10" d="M43.4118 41.0117C43.5509 41.0811 43.6205 41.1508 43.6205 41.3595V42.0552C43.6205 42.3334 43.5509 42.403 43.2725 42.2639C43.0638 42.1943 42.7856 42.1247 42.4377 42.1247C41.3247 42.1247 40.9767 42.9595 40.9767 43.7249C40.9767 44.5597 41.3247 45.3944 42.4377 45.3944C42.7856 45.3944 43.0638 45.325 43.2031 45.325C43.4118 45.2553 43.5509 45.325 43.5509 45.5337V46.2989C43.5509 46.438 43.4812 46.5076 43.3422 46.5772C42.9944 46.6467 42.5769 46.7163 42.2986 46.7163C40.768 46.7163 39.4463 45.8118 39.4463 43.7944C39.4463 41.7769 40.768 40.8724 42.229 40.8724C42.7856 40.8724 43.0638 40.9421 43.4118 41.0117Z" fill="white"/>
<path id="Vector_11" d="M46.6823 46.0902C46.6823 46.5076 46.6126 46.5772 46.1952 46.5772H45.7082C45.3604 46.5772 45.2213 46.5076 45.2213 46.0902V42.0552H44.3865C44.0385 42.0552 43.8994 41.9856 43.8994 41.5682V41.3595C43.8994 40.9421 43.969 40.8724 44.3865 40.8724H47.5171C47.8649 40.8724 48.004 40.9421 48.004 41.3595V41.5682C48.004 41.9856 47.9345 42.0552 47.5171 42.0552H46.6823V46.0902Z" fill="white"/>
</g>
<g id="Group 427320293">
<path id="Vector_12" d="M52.1108 52.5544C63.9835 40.6818 63.9835 21.4325 52.1108 9.55984C40.2382 -2.31275 20.989 -2.31276 9.11637 9.55984C-2.75624 21.4325 -2.75624 40.6818 9.11637 52.5544C20.989 64.427 40.2382 64.427 52.1108 52.5544Z" fill="#A1A1A0"/>
<path id="Vector_13" d="M13.1494 16.0361C13.1494 14.436 13.5668 14.0881 15.0278 14.0881H20.9412C24.6284 14.0881 29.9852 15.8274 29.9852 22.1582C29.9852 28.5587 24.5589 30.0891 20.8716 30.0891H18.9238V35.0982C18.9238 36.6982 18.5064 37.0462 17.0454 37.0462H15.0974C13.5668 37.0462 13.219 36.6288 13.219 35.0982V16.0361H13.1494ZM18.9238 24.941H20.5935C21.8457 24.941 23.8632 24.8019 23.8632 22.0887C23.8632 19.3755 21.8457 19.2362 20.5935 19.2362H18.9238V24.941Z" fill="white"/>
<path id="Vector_14" d="M31.376 19.0974C31.376 17.4277 32.6282 16.1754 34.2979 16.1754C35.9676 16.1754 37.2199 17.4277 37.2199 19.0974C37.2199 20.9061 35.9676 22.0193 34.2979 22.0193C32.5586 22.0888 31.376 20.9757 31.376 19.0974ZM31.5151 25.2194C31.5151 23.6193 31.9325 23.2715 33.3935 23.2715H34.7848C36.3154 23.2715 36.6632 23.689 36.6632 25.2194V32.2459C36.6632 32.6633 36.8024 32.8026 37.0111 32.8026H37.2199C37.5676 32.8026 37.846 32.9417 37.846 33.9156V35.5853C37.846 36.5593 37.5676 36.9071 36.8719 37.0462C36.1067 37.2549 35.6893 37.2549 35.1328 37.2549C32.9064 37.2549 31.376 36.7681 31.376 33.22V25.2194H31.5151Z" fill="white"/>
<path id="Vector_15" d="M39.7256 21.4627C39.7256 19.8626 40.143 19.5146 41.604 19.5146H42.7171C44.4564 19.5146 44.9433 19.9321 44.9433 21.4627V23.2714H45.7782C46.961 23.2714 47.3784 23.6194 47.3784 24.9411V25.6369C47.3784 26.8891 47.0304 27.3065 45.7782 27.3065H44.9433V30.4372C44.9433 32.733 45.8478 32.8721 46.4043 32.8721H46.8217C47.2391 32.8721 47.7262 33.1504 47.7262 34.0547V35.794C47.7262 36.9766 46.961 37.1159 46.6826 37.1854C46.4043 37.255 45.8478 37.255 45.5695 37.255C41.1171 37.255 39.7256 34.4721 39.7256 29.811V21.4627Z" fill="white"/>
<path id="Vector_16" d="M13.0791 41.4291C13.0791 41.0116 13.1487 40.942 13.5661 40.942H15.027C15.9315 40.942 17.2534 41.3594 17.2534 42.9595C17.2534 44.5597 15.9315 44.9075 15.027 44.9075H14.5401V46.1598C14.5401 46.5772 14.4705 46.6468 14.0531 46.6468H13.5661C13.2182 46.6468 13.0791 46.5772 13.0791 46.1598V41.4291ZM14.5401 43.5856H14.9575C15.2358 43.5856 15.7924 43.5162 15.7924 42.89C15.7924 42.1943 15.3053 42.1943 14.9575 42.1943H14.5401V43.5856Z" fill="white"/>
<path id="Vector_17" d="M17.8115 41.4291C17.8115 41.0116 17.881 40.942 18.2984 40.942H19.829C20.7335 40.942 22.0552 41.3594 22.0552 42.8204C22.0552 43.7249 21.6378 44.2118 21.0116 44.4205C21.4291 44.9075 21.5683 45.464 21.9857 45.464H22.0552C22.1944 45.464 22.2639 45.5336 22.2639 45.812V46.2988C22.2639 46.6468 21.9161 46.6468 21.6378 46.6468C20.0377 46.6468 20.0377 44.6292 19.342 44.6292H19.2029V46.0901C19.2029 46.5076 19.1332 46.5772 18.7158 46.5772H18.2984C17.9506 46.5772 17.8115 46.5076 17.8115 46.0901V41.4291ZM19.2725 43.4465H19.829C20.316 43.4465 20.5942 43.1682 20.5942 42.8204C20.5942 42.4726 20.3855 42.1943 19.829 42.1943H19.2725V43.4465Z" fill="white"/>
<path id="Vector_18" d="M25.393 40.8724C26.9933 40.8724 28.1759 41.9856 28.1759 43.7944C28.1759 45.6031 27.0627 46.7163 25.393 46.7163C23.793 46.7163 22.6104 45.6031 22.6104 43.7944C22.6104 41.9856 23.793 40.8724 25.393 40.8724ZM25.393 45.325C26.0888 45.325 26.6453 44.6988 26.6453 43.7249C26.6453 42.7508 26.1584 42.1943 25.393 42.1943C24.6974 42.1943 24.1408 42.8204 24.1408 43.7249C24.1408 44.6292 24.6974 45.325 25.393 45.325Z" fill="white"/>
<path id="Vector_19" d="M28.7334 41.4291C28.7334 41.0116 28.803 40.942 29.2204 40.942H30.8205C32.4902 40.942 33.8817 41.9159 33.8817 43.864C33.8817 45.7423 32.4902 46.6468 30.8901 46.6468H29.2204C28.8726 46.6468 28.7334 46.5772 28.7334 46.1598V41.4291ZM30.1944 45.3945H30.8205C31.7946 45.3945 32.3511 44.7684 32.3511 43.7943C32.3511 42.8204 31.864 42.1247 30.8205 42.1247H30.1944V45.3945Z" fill="white"/>
<path id="Vector_20" d="M38.9598 44.2814C38.9598 45.8814 38.1249 46.7163 36.664 46.7163C35.203 46.7163 34.3682 45.8814 34.3682 44.2814V41.4291C34.3682 41.0116 34.4378 40.942 34.8552 40.942H35.3422C35.69 40.942 35.8291 41.0116 35.8291 41.4291V44.2814C35.8291 45.2553 36.3858 45.3945 36.664 45.3945C36.9423 45.3945 37.4988 45.2553 37.4988 44.2814V41.4291C37.4988 41.0116 37.5684 40.942 37.9859 40.942H38.4729C38.8207 40.942 38.9598 41.0116 38.9598 41.4291V44.2814Z" fill="white"/>
<path id="Vector_21" d="M43.4118 41.0117C43.5509 41.0811 43.6205 41.1508 43.6205 41.3595V42.0552C43.6205 42.3334 43.5509 42.403 43.2725 42.2639C43.0638 42.1943 42.7856 42.1247 42.4377 42.1247C41.3247 42.1247 40.9767 42.9595 40.9767 43.7249C40.9767 44.5597 41.3247 45.3944 42.4377 45.3944C42.7856 45.3944 43.0638 45.325 43.2031 45.325C43.4118 45.2553 43.5509 45.325 43.5509 45.5337V46.2989C43.5509 46.438 43.4812 46.5076 43.3422 46.5772C42.9944 46.6467 42.5769 46.7163 42.2986 46.7163C40.768 46.7163 39.4463 45.8118 39.4463 43.7944C39.4463 41.7769 40.768 40.8724 42.229 40.8724C42.7856 40.8724 43.0638 40.9421 43.4118 41.0117Z" fill="white"/>
<path id="Vector_22" d="M46.6823 46.0902C46.6823 46.5076 46.6126 46.5772 46.1952 46.5772H45.7082C45.3604 46.5772 45.2213 46.5076 45.2213 46.0902V42.0552H44.3865C44.0385 42.0552 43.8994 41.9856 43.8994 41.5682V41.3595C43.8994 40.9421 43.969 40.8724 44.3865 40.8724H47.5171C47.8649 40.8724 48.004 40.9421 48.004 41.3595V41.5682C48.004 41.9856 47.9345 42.0552 47.5171 42.0552H46.6823V46.0902Z" fill="white"/>
</g>
</g>
<defs>
<clipPath id="clip0_117_1933">
<rect width="60.804" height="60.804" fill="white" transform="translate(0.209961 0.661011)"/>
</clipPath>
</defs>
</svg>
