<svg width="134" height="48" viewBox="0 0 134 48" fill="none" xmlns="http://www.w3.org/2000/svg">
<path d="M27.5909 27.678C26.9373 28.3995 26.0845 28.911 25.1403 29.1479C24.1961 29.3848 23.2029 29.3365 22.2861 29.0092C21.3694 28.6818 20.5702 28.09 19.9897 27.3086C19.4091 26.5271 19.0733 25.5912 19.0245 24.6189C18.9757 23.6467 19.2163 22.6818 19.7157 21.8462C20.2151 21.0106 20.9511 20.3418 21.8305 19.9244C22.7099 19.5069 23.6933 19.3595 24.6565 19.5007C25.6196 19.642 26.5193 20.0656 27.2418 20.718C27.723 21.1513 28.1139 21.6753 28.3921 22.2601C28.6702 22.8448 28.8301 23.4788 28.8625 24.1255C28.8949 24.7722 28.7993 25.419 28.5811 26.0286C28.3629 26.6383 28.0264 27.1988 27.5909 27.678Z" fill="#A1A1A0"/>
<path d="M25.2263 7.5034C25.6336 7.91068 26.019 8.32523 26.3608 8.73978C27.5502 10.1587 28.5299 11.7409 29.2699 13.438C30.4372 13.6557 31.6256 13.7387 32.8118 13.6853H33.0227H33.2118C36.4522 13.3892 39.4766 11.9325 41.7282 9.58342L42.0264 9.27796C41.5755 8.73978 41.1173 8.21614 40.6155 7.71431C36.6099 3.72294 31.3019 1.30612 25.6615 0.905514C20.021 0.504913 14.4247 2.14728 9.89526 5.53248C17.0953 2.027 22.0917 4.44156 25.2263 7.5034Z" fill="#A1A1A0"/>
<path d="M8.55796 31.4018C8.70342 30.8418 8.87069 30.3037 9.05251 29.8018C9.69023 28.0641 10.5718 26.4259 11.6707 24.9363C11.2773 23.8177 10.755 22.7487 10.1143 21.7509L9.99797 21.569L9.88888 21.4163C8.02285 18.7839 5.27468 16.9079 2.14337 16.129L1.72882 16.0054C1.48882 16.6599 1.27064 17.3217 1.08155 18.0054C-0.37565 23.4681 0.181086 29.2727 2.65005 34.3589C5.11901 39.445 9.33539 43.4731 14.5289 45.7074C7.87432 41.1983 7.45977 35.6419 8.55796 31.4018Z" fill="#A1A1A0"/>
<path d="M37.6557 33.9254C37.0957 34.0782 36.543 34.2018 36.0121 34.2963C34.189 34.612 32.3303 34.6659 30.492 34.4563C29.7228 35.3466 29.059 36.3228 28.5138 37.3655C28.5138 37.4309 28.4484 37.4891 28.4193 37.5546C28.3896 37.6113 28.3629 37.6696 28.3393 37.7291C26.9785 40.6625 26.7203 43.9881 27.612 47.0964C27.612 47.2346 27.692 47.3728 27.7356 47.511C28.4193 47.3874 29.1102 47.2564 29.7938 47.0746C35.2435 45.6 39.9827 42.2177 43.1487 37.5433C46.3148 32.8689 47.6974 27.2132 47.0449 21.6053C46.4631 29.6272 41.8594 32.7545 37.6557 33.9254Z" fill="#A1A1A0"/>
<path d="M9.85932 5.53248C6.41138 7.94148 3.7159 11.2774 2.08472 15.1544C4.51002 15.6665 6.75681 16.8107 8.5973 18.4711C10.4378 20.1315 11.8065 22.249 12.5648 24.609C13.2121 24.1944 15.2048 22.6162 16.543 18.2817C18.1648 13.038 21.2339 9.16887 25.2267 7.48159C25.2267 7.50341 20.1721 0.310629 9.85932 5.53248Z" fill="#A1A1A0"/>
<path d="M26.0493 43.2855C26.0465 39.7717 27.3623 36.3847 29.7366 33.7945L29.773 33.7436C29.2857 33.2272 27.5911 31.9617 23.2275 32.9508C17.9111 34.1654 12.0056 34.0272 8.55828 31.4017C8.55828 31.4017 4.84917 39.4018 14.5292 45.6927C18.3335 47.4749 22.5647 48.1431 26.733 47.62C26.2688 46.2225 26.0378 44.758 26.0493 43.2855Z" fill="#A1A1A0"/>
<path d="M42.6012 10.0635C41.2991 11.5435 39.6971 12.7297 37.9015 13.5435C36.106 14.3572 34.158 14.7799 32.1866 14.7835C31.1479 14.7798 30.1122 14.6702 29.0957 14.4562H29.0448C28.8412 15.1835 28.6811 17.2563 31.6266 20.4272C35.3576 24.4563 38.1721 29.6345 37.6558 33.9327C37.6558 33.9327 46.3831 33.1546 47.0449 21.6127C46.6845 17.4204 45.1438 13.4161 42.6012 10.0635Z" fill="#A1A1A0"/>
<path d="M57.9028 30.34H55.4519V18.9144H59.3865C62.2956 18.9144 64.0701 20.1072 64.0701 22.7326C64.0701 25.3581 62.2083 26.769 59.1828 26.769H57.9028V30.34ZM57.8519 24.609H59.1828C60.6374 24.609 61.5319 24.0417 61.5319 22.8345C61.5319 21.6272 60.7101 21.0744 59.1828 21.0744H57.8519V24.609Z" fill="#A1A1A0"/>
<path d="M65.8523 24.6309C65.8523 20.7909 68.1869 18.7181 71.336 18.7181C74.8633 18.7181 76.9069 20.9582 76.9069 24.6309C76.9069 28.6964 74.536 30.5364 71.4014 30.5364C68.0923 30.5364 65.8523 28.4928 65.8523 24.6309ZM74.3105 24.6309C74.3105 22.0345 73.1178 20.8782 71.336 20.8782C69.7214 20.8782 68.4269 22.0854 68.4269 24.6309C68.4269 27.1764 69.7505 28.3837 71.4669 28.3837C73.1833 28.3837 74.3105 27.1909 74.3105 24.6309Z" fill="#A1A1A0"/>
<path d="M87.8025 29.8817C86.8482 30.3695 85.7816 30.5953 84.7115 30.5363C81.2206 30.5363 78.8933 28.529 78.8933 24.7762C78.8933 20.8417 81.1915 18.718 84.9297 18.718C85.9262 18.6949 86.9166 18.8782 87.8388 19.2562L87.3006 21.3144C86.6565 21.1044 85.9852 20.9892 85.3079 20.9726C83.0533 20.9726 81.5188 22.0998 81.5188 24.609C81.5188 27.0235 82.9733 28.2453 85.2934 28.2453C85.9881 28.2229 86.673 28.0751 87.3152 27.809L87.8025 29.8817Z" fill="#A1A1A0"/>
<path d="M96.7613 27.2927H91.9104L90.8049 30.34H89.3503L93.714 18.9144H95.1686L99.445 30.34H97.9104L96.7613 27.2927ZM92.354 25.9545H96.274L94.3686 20.5799H94.3031L92.354 25.9545Z" fill="#A1A1A0"/>
<path d="M104.493 30.34H103.039V20.289H99.657V18.9144H107.883V20.289H104.493V30.34Z" fill="#A1A1A0"/>
<path d="M109.425 24.6308C109.425 20.9944 111.534 18.7544 114.516 18.7544C117.912 18.7544 119.737 21.169 119.737 24.6308C119.737 28.5145 117.556 30.5072 114.566 30.5072C111.432 30.5072 109.425 28.2526 109.425 24.6308ZM118.21 24.6308C118.21 21.4962 116.806 20.1217 114.574 20.1217C112.566 20.1217 111.017 21.5762 111.017 24.6308C111.017 27.6854 112.515 29.1327 114.77 29.1327C116.886 29.1327 118.21 27.5835 118.21 24.6308Z" fill="#A1A1A0"/>
<path d="M133.963 30.34H132.508L131.781 21.4163L128.872 30.34H127.337L124.472 21.4454L123.744 30.34H122.29L123.264 18.9144H125.061L128.144 28.74L131.184 18.9144H132.981L133.963 30.34Z" fill="#A1A1A0"/>
</svg>
