<svg width="120" height="55" viewBox="0 0 120 55" fill="none" xmlns="http://www.w3.org/2000/svg">
<g id="RZD 1" clip-path="url(#clip0_117_1858)">
<g id="Group">
<path id="Vector" d="M84.7064 5.48402V7.42351H101.345C102.454 7.42351 104.118 7.42351 105.211 8.53276C106.303 9.642 106.32 11.3059 106.32 12.3983V29.037C106.32 30.1462 106.32 31.8101 105.211 32.9025C104.101 34.0117 102.438 34.0117 101.345 34.0117H93.3115C91.9266 34.0117 90.1216 34.0117 89.4459 32.4857C88.7535 30.9597 89.7229 29.5748 90.5552 28.4521L101.379 14.0319H84.74L78.0846 22.9059C76.9686 24.3916 76.0039 25.679 76.0039 27.3428C76.0039 29.0067 76.9014 30.2033 78.0846 31.7798L79.7484 33.9983C81.4123 36.2168 83.0762 38.4353 85.2947 39.5445C87.5132 40.6538 90.135 40.6538 93.7653 40.6538H100.959C105.127 40.6538 111.345 40.6538 115.513 36.4857C119.681 32.3176 119.681 26.2336 119.681 24.0151V17.3597C119.681 15.1412 119.681 9.05713 115.513 4.88906C111.345 0.720994 105.127 0.720994 100.959 0.720994L89.4627 0.717296C88.3535 0.71696 86.9686 0.717296 85.8661 1.82654C84.7568 2.93578 84.7568 4.32066 84.7568 5.42318" fill="#2fb14b"/>
<path id="Vector_2" d="M64.8749 14.0891H81.3455L61.5136 40.7782H45.043L64.8749 14.0891Z" fill="#2fb14b"/>
<path id="Vector_3" d="M0 18.795C0 17.6858 0 16.3009 1.10924 15.1984C2.21849 14.0958 3.60336 14.0891 4.70588 14.0891H32.5714C36.1681 14.0891 38.8235 14.0891 41.042 15.1984C43.2605 16.3076 44.9076 18.5261 46.5882 20.7446L48.2521 22.9631C49.4319 24.5362 50.3328 25.7362 50.3328 27.4C50.3328 29.0639 49.3681 30.3513 48.2521 31.837L41.5966 40.711H24.958L35.7815 26.2908C36.6118 25.1816 37.5832 23.7967 36.8908 22.2572C36.1983 20.7311 34.3966 20.7311 33.0252 20.7311H19.9832V54.0084H6.67227V20.7311H0.0168067V18.7883" fill="#2fb14b"/>
</g>
</g>
<defs>
<clipPath id="clip0_117_1858">
<rect width="120" height="53.7815" fill="white" transform="translate(0 0.442017)"/>
</clipPath>
</defs>
</svg>
