<!DOCTYPE svg PUBLIC "-//W3C//DTD SVG 1.1//EN" "http://www.w3.org/Graphics/SVG/1.1/DTD/svg11.dtd">
<!-- Uploaded to: SVG Repo, www.svgrepo.com, Transformed by: SVG Repo Mixer Tools -->
<svg version="1.1" id="Layer_1" xmlns="http://www.w3.org/2000/svg" xmlns:xlink="http://www.w3.org/1999/xlink" viewBox="0 0 512 512" xml:space="preserve" width="64px" height="64px" fill="#000000">
<g id="SVGRepo_bgCarrier" stroke-width="0"/>
<g id="SVGRepo_tracerCarrier" stroke-linecap="round" stroke-linejoin="round"/>
<g id="SVGRepo_iconCarrier"> <rect x="7.286" y="7.286" style="fill:#FFFFFF;" width="497.43" height="497.43"/> <g> <rect x="7.286" y="449.45" style="fill:#ED1F34;" width="497.43" height="55.26"/> <rect x="7.286" y="338.9" style="fill:#ED1F34;" width="497.43" height="55.26"/> <rect x="225.79" y="228.36" style="fill:#ED1F34;" width="278.92" height="55.28"/> <rect x="236.17" y="117.83" style="fill:#ED1F34;" width="268.55" height="55.26"/> <rect x="225.79" y="7.286" style="fill:#ED1F34;" width="278.92" height="55.26"/> </g> <rect x="7.286" y="7.286" style="fill:#164FCE;" width="327.75" height="276.35"/> <path d="M504.714,0H7.286C3.262,0,0,3.262,0,7.286v497.427C0,508.738,3.262,512,7.286,512h497.427c4.024,0,7.286-3.262,7.286-7.286 V7.286C512,3.262,508.738,0,504.714,0z M389.102,180.382h108.326v40.691H342.328v-40.691h19.156c4.024,0,7.286-3.262,7.286-7.287 c0-4.025-3.262-7.286-7.286-7.286h-19.156v-40.692h155.099v40.692H389.102c-4.024,0-7.287,3.262-7.287,7.286 C381.814,177.12,385.076,180.382,389.102,180.382z M342.328,110.545V69.837h155.099v40.708H342.328z M342.328,235.646h155.099 v40.708H342.328V235.646z M497.427,290.927v40.691H14.573v-40.691H497.427z M14.573,401.455h390.655 c4.024,0,7.286-3.262,7.286-7.286c0-4.025-3.262-7.287-7.286-7.287H14.573V346.19h482.854v40.692h-59.037 c-4.024,0-7.286,3.262-7.286,7.287s3.262,7.286,7.286,7.286h59.037v40.708H14.573V401.455z M497.427,55.264H342.328V14.573h155.099 V55.264z M327.755,14.573v261.781H14.573V14.573H327.755z M14.573,497.427v-40.691h482.854v40.691H14.573z"/> <g> <circle style="fill:#FFFFFF;" cx="72.55" cy="217.09" r="8.953"/> <circle style="fill:#FFFFFF;" cx="121.86" cy="217.09" r="8.953"/> <circle style="fill:#FFFFFF;" cx="171.16" cy="217.09" r="8.953"/> <circle style="fill:#FFFFFF;" cx="220.47" cy="217.09" r="8.953"/> <circle style="fill:#FFFFFF;" cx="269.77" cy="217.09" r="8.953"/> <circle style="fill:#FFFFFF;" cx="47.902" cy="240.97" r="8.953"/> <circle style="fill:#FFFFFF;" cx="97.21" cy="240.97" r="8.953"/> <circle style="fill:#FFFFFF;" cx="146.51" cy="240.97" r="8.953"/> <circle style="fill:#FFFFFF;" cx="195.82" cy="240.97" r="8.953"/> <circle style="fill:#FFFFFF;" cx="245.12" cy="240.97" r="8.953"/> <circle style="fill:#FFFFFF;" cx="294.43" cy="240.97" r="8.953"/> <circle style="fill:#FFFFFF;" cx="47.902" cy="193.22" r="8.953"/> <circle style="fill:#FFFFFF;" cx="97.21" cy="193.22" r="8.953"/> <circle style="fill:#FFFFFF;" cx="146.51" cy="193.22" r="8.953"/> <circle style="fill:#FFFFFF;" cx="195.82" cy="193.22" r="8.953"/> <circle style="fill:#FFFFFF;" cx="245.12" cy="193.22" r="8.953"/> <circle style="fill:#FFFFFF;" cx="294.43" cy="193.22" r="8.953"/> <circle style="fill:#FFFFFF;" cx="72.55" cy="169.34" r="8.953"/> <circle style="fill:#FFFFFF;" cx="121.86" cy="169.34" r="8.953"/> <circle style="fill:#FFFFFF;" cx="171.16" cy="169.34" r="8.953"/> <circle style="fill:#FFFFFF;" cx="220.47" cy="169.34" r="8.953"/> <circle style="fill:#FFFFFF;" cx="269.77" cy="169.34" r="8.953"/> <circle style="fill:#FFFFFF;" cx="47.902" cy="145.46" r="8.953"/> <circle style="fill:#FFFFFF;" cx="97.21" cy="145.46" r="8.953"/> <circle style="fill:#FFFFFF;" cx="146.51" cy="145.46" r="8.953"/> <circle style="fill:#FFFFFF;" cx="195.82" cy="145.46" r="8.953"/> <circle style="fill:#FFFFFF;" cx="245.12" cy="145.46" r="8.953"/> <circle style="fill:#FFFFFF;" cx="294.43" cy="145.46" r="8.953"/> <circle style="fill:#FFFFFF;" cx="72.55" cy="121.59" r="8.953"/> <circle style="fill:#FFFFFF;" cx="121.86" cy="121.59" r="8.953"/> <circle style="fill:#FFFFFF;" cx="171.16" cy="121.59" r="8.953"/> <circle style="fill:#FFFFFF;" cx="220.47" cy="121.59" r="8.953"/> <circle style="fill:#FFFFFF;" cx="269.77" cy="121.59" r="8.953"/> <circle style="fill:#FFFFFF;" cx="47.902" cy="97.71" r="8.953"/> <circle style="fill:#FFFFFF;" cx="97.21" cy="97.71" r="8.953"/> <circle style="fill:#FFFFFF;" cx="146.51" cy="97.71" r="8.953"/> <circle style="fill:#FFFFFF;" cx="195.82" cy="97.71" r="8.953"/> <circle style="fill:#FFFFFF;" cx="245.12" cy="97.71" r="8.953"/> <circle style="fill:#FFFFFF;" cx="294.43" cy="97.71" r="8.953"/> <circle style="fill:#FFFFFF;" cx="72.55" cy="73.834" r="8.953"/> <circle style="fill:#FFFFFF;" cx="121.86" cy="73.834" r="8.953"/> <circle style="fill:#FFFFFF;" cx="171.16" cy="73.834" r="8.953"/> <circle style="fill:#FFFFFF;" cx="220.47" cy="73.834" r="8.953"/> <circle style="fill:#FFFFFF;" cx="269.77" cy="73.834" r="8.953"/> <circle style="fill:#FFFFFF;" cx="47.902" cy="49.957" r="8.953"/> <circle style="fill:#FFFFFF;" cx="97.21" cy="49.957" r="8.953"/> <circle style="fill:#FFFFFF;" cx="146.51" cy="49.957" r="8.953"/> <circle style="fill:#FFFFFF;" cx="195.82" cy="49.957" r="8.953"/> <circle style="fill:#FFFFFF;" cx="245.12" cy="49.957" r="8.953"/> <circle style="fill:#FFFFFF;" cx="294.43" cy="49.957" r="8.953"/> </g> </g>
</svg>