<svg width="111" height="61" viewBox="0 0 111 61" fill="none" xmlns="http://www.w3.org/2000/svg">
<g id="Frame 427320340">
<g id="Group 427320289">
<g id="Group">
<path id="Vector" d="M55.1721 0.0666504C63.2226 0.189073 71.12 1.20395 78.7176 4.00252C82.6828 5.4618 86.4204 7.34342 89.656 10.1077C92.1191 12.2097 94.1097 14.6679 95.0303 17.8289C96.3035 22.203 95.1454 26.0765 92.3848 29.5435C90.1089 32.4032 87.1782 34.4563 83.967 36.131C79.1228 38.6578 73.9517 40.1917 68.5945 41.1503C64.7056 41.8377 60.7685 42.2176 56.8199 42.2864C48.1757 42.4664 39.7261 41.3927 31.5728 38.424C27.6822 37.0075 24.0206 35.1455 20.8302 32.4583C18.2055 30.2523 16.0974 27.6582 15.2172 24.272C14.1252 20.0692 15.2515 16.3329 17.886 13.003C20.5205 9.67312 24.0071 7.40831 27.8022 5.6087C32.6991 3.28268 37.8641 1.88952 43.1992 1.05092C46.3954 0.537027 49.6231 0.243745 52.8596 0.173157C53.6271 0.162139 54.3996 0.103377 55.1721 0.0666504ZM55.1464 4.40774C53.8842 4.40774 52.6208 4.37713 51.3599 4.40774C47.5256 4.51792 43.7428 5.05535 40.004 5.88905C35.2712 6.94433 30.7122 8.47583 26.5449 11.0185C24.1907 12.4533 22.0642 14.1477 20.5168 16.4749C19.2583 18.3724 18.7038 20.4267 19.1408 22.6988C19.5852 25.0249 20.9233 26.8294 22.5772 28.4221C25.1101 30.8632 28.1413 32.5306 31.3598 33.8686C36.335 35.9363 41.5367 37.103 46.8829 37.6968C50.8509 38.1414 54.8481 38.2671 58.8362 38.0726C62.5143 37.9037 66.1729 37.4407 69.7771 36.688C74.4169 35.7001 78.9 34.2543 83.0403 31.8842C85.6271 30.4029 87.9959 28.6498 89.7099 26.1511C91.1618 24.0369 91.7812 21.7342 91.081 19.2C90.4395 16.874 88.9827 15.0768 87.2112 13.5208C84.4175 11.0724 81.166 9.39032 77.7125 8.08653C70.4406 5.3357 62.8737 4.32694 55.1464 4.40774Z" fill="#A1A1A0"/>
<g id="Group 427320288">
<path id="Vector_2" d="M42.2327 59.7634V57.0224C42.4934 57.0493 42.6844 57.0714 42.8742 57.0885C43.8535 57.1779 44.566 56.6576 44.6848 55.6868C44.7632 54.9586 44.8012 54.2266 44.7986 53.4942C44.8133 51.6407 44.7986 49.7873 44.7986 47.8848C45.0239 47.8664 45.2002 47.8395 45.3752 47.8395C48.8031 47.8395 52.2309 47.8493 55.6587 47.826C56.1863 47.826 56.3075 48.0023 56.3051 48.4933C56.2896 52.2475 56.2896 56.0018 56.3051 59.7561C56.3051 60.2115 56.1949 60.4123 55.693 60.3976C54.4688 60.3633 53.2445 60.3633 52.0203 60.3976C51.4878 60.4135 51.3715 60.2066 51.3752 59.7218C51.3935 57.2134 51.3751 54.7025 51.3935 52.1953C51.3935 51.6334 51.2711 51.3567 50.648 51.4277C50.2281 51.4755 49.7984 51.4375 49.3013 51.4375C49.2879 51.724 49.2719 51.9602 49.267 52.1953C49.2328 53.9092 49.2352 55.6231 49.1593 57.3285C49.0932 58.8257 48.2399 59.7769 46.8455 60.2262C45.6519 60.6094 44.424 60.6498 43.1729 60.5567C41.4896 60.4343 39.7965 60.4343 38.1083 60.389C36.971 60.3621 37.244 60.4796 36.944 59.4978C36.6147 58.4229 36.84 58.5637 35.6819 58.5515C35.0906 58.5453 34.498 58.5649 33.9067 58.5515C33.5591 58.5404 33.417 58.6886 33.3118 59.0142C32.8845 60.3951 32.8735 60.3915 31.4228 60.3915C30.4642 60.3915 29.5057 60.3915 28.5471 60.3915C28.3537 60.3915 28.1602 60.367 27.8787 60.3486C28.2961 59.1611 28.683 58.0532 29.0747 56.949C30.0823 54.1112 31.0996 51.2784 32.0949 48.4369C32.2418 48.0158 32.4279 47.8248 32.9114 47.8358C34.3389 47.8726 35.7675 47.8701 37.1962 47.8358C37.6651 47.8248 37.8695 47.9828 38.0226 48.4161C39.2737 51.986 40.5469 55.5497 41.8177 59.1146C41.8984 59.3411 41.9915 59.5627 42.0784 59.7867L42.2327 59.7634ZM35.1395 52.3912H34.9706C34.6951 53.4048 34.4185 54.4185 34.1308 55.475H35.9855C35.6904 54.4062 35.415 53.3963 35.1395 52.3912Z" fill="#A1A1A0"/>
<path id="Vector_3" d="M92.123 47.8639H96.7482C96.7616 48.1149 96.7849 48.3536 96.7849 48.5862C96.7849 51.0946 96.802 53.6055 96.7751 56.1115C96.769 56.6709 96.9404 56.8583 97.5011 56.8546C98.9261 56.8472 98.9273 56.8705 98.9273 55.4308V47.8786H103.599C103.61 48.1136 103.627 48.3315 103.627 48.5482C103.627 51.0775 103.643 53.6067 103.617 56.1384C103.617 56.6587 103.74 56.8595 104.291 56.8595C105.782 56.8595 105.783 56.8803 105.783 55.3782V47.881H110.435V60.3326H92.123V47.8639Z" fill="#A1A1A0"/>
<path id="Vector_4" d="M67.1581 54.8175C67.5825 53.2775 68.0069 51.7366 68.4313 50.1949C68.6088 49.5485 68.7484 48.8886 68.9688 48.2569C69.0205 48.1519 69.0966 48.0608 69.1908 47.9912C69.2849 47.9215 69.3943 47.8754 69.5099 47.8566C71.0389 47.8236 72.5704 47.8456 74.0983 47.8321C74.4545 47.8321 74.5818 47.9472 74.632 48.3133C75.1413 52.0177 75.6738 55.7198 76.1953 59.4243C76.2345 59.7046 76.2431 59.9899 76.2712 60.3278H71.5041C71.3148 58.2686 71.1258 56.2079 70.9373 54.1454H70.761C70.4586 55.1701 70.1489 56.1936 69.8539 57.2195C69.5919 58.1168 69.3275 59.0142 69.0851 59.9128C68.9908 60.2617 68.8219 60.4024 68.4436 60.3927C67.5866 60.3657 66.7297 60.3523 65.8727 60.3927C65.3512 60.4208 65.1296 60.2408 64.9937 59.7389C64.531 58.025 64.0143 56.338 63.5246 54.64C63.4738 54.4391 63.357 54.2611 63.1929 54.1344C63.1243 54.8445 63.0533 55.5533 62.9872 56.2633C62.8758 57.479 62.7803 58.6959 62.6457 59.9091C62.6273 60.0756 62.4302 60.3535 62.3114 60.3559C60.8485 60.3865 59.3843 60.3755 57.8357 60.3755C58.001 59.1305 58.1503 57.9479 58.3156 56.7677C58.7073 53.9692 59.1175 51.173 59.4908 48.372C59.5472 47.9509 59.6928 47.8248 60.103 47.8297C61.572 47.8481 63.0411 47.8542 64.5101 47.8297C64.9423 47.8211 65.1051 47.9717 65.2116 48.3781C65.7209 50.3247 66.262 52.2626 66.7933 54.203C66.8509 54.4111 66.9268 54.6143 66.9941 54.8151L67.1581 54.8175Z" fill="#A1A1A0"/>
<path id="Vector_5" d="M76.5681 60.3816C77.1349 58.7901 77.6479 57.3321 78.1596 55.8802C79.0435 53.3889 79.9396 50.9012 80.8064 48.4026C80.9582 47.9656 81.1736 47.815 81.6376 47.826C83.1067 47.8591 84.5758 47.826 86.0448 47.8542C86.2444 47.8542 86.5565 48.0366 86.619 48.2067C88.0464 52.1451 89.4469 56.0932 90.8499 60.0413C90.8716 60.1325 90.8847 60.2255 90.8891 60.3192C90.7272 60.3491 90.5637 60.3692 90.3994 60.3792C89.0735 60.3792 87.7477 60.3694 86.4231 60.3902C86.0338 60.3902 85.8514 60.2812 85.7412 59.8883C85.3666 58.5416 85.3495 58.5416 83.9404 58.5416C83.6955 58.5416 83.4507 58.5416 83.2058 58.5416C81.9816 58.5673 82.1836 58.3347 81.869 59.6091C81.7147 60.2274 81.4687 60.4147 80.8443 60.3926C79.4695 60.3473 78.0849 60.3816 76.5681 60.3816ZM82.8349 55.4847H84.7043C84.4068 54.4086 84.1289 53.4036 83.8473 52.4009L83.6759 52.4144C83.4091 53.3962 83.1385 54.3817 82.8349 55.4823V55.4847Z" fill="#A1A1A0"/>
<path id="Vector_6" d="M15.8455 47.8382C17.8287 47.8382 19.763 47.8149 21.6936 47.8492C22.5264 47.8482 23.3573 47.9302 24.1738 48.094C26.2195 48.5458 27.4082 50.185 27.3568 52.3494C27.3066 54.3706 25.96 55.9633 23.9596 56.3245C23.4391 56.4141 22.9121 56.4603 22.384 56.4628C20.7644 56.4848 20.7632 56.4738 20.7632 58.1216V60.3448H15.8455V47.8382ZM20.7619 52.1413C20.7619 52.2637 20.7619 52.3861 20.7619 52.5086C20.7619 53.3521 20.9076 53.4635 21.7315 53.2602C21.8311 53.2407 21.9289 53.2133 22.0241 53.1782C22.5064 52.975 22.7586 52.3984 22.6081 51.8499C22.4465 51.2537 21.9372 50.9709 21.15 51.0652C20.462 51.1472 20.8758 51.6957 20.7632 52.0226C20.7568 52.0618 20.7564 52.1019 20.7619 52.1413Z" fill="#A1A1A0"/>
<path id="Vector_7" d="M0.435303 47.8382C2.32795 47.8382 4.12266 47.8272 5.91614 47.8565C6.08998 47.8565 6.3336 48.0745 6.42175 48.252C6.88573 49.1811 7.30931 50.1299 7.75003 51.0677C7.83083 51.2403 7.92999 51.4043 8.09526 51.7104C8.53598 50.5413 8.95221 49.5313 9.29377 48.498C9.46149 47.9949 9.70021 47.8015 10.2474 47.821C11.49 47.8663 12.7363 47.8357 13.9801 47.8357H14.6387C14.5653 48.0696 14.5334 48.2238 14.4722 48.3658C12.8399 52.1625 11.2101 55.9597 9.58269 59.7572C9.39293 60.2016 9.16768 60.4097 8.64371 60.3938C7.17464 60.3522 5.71292 60.3791 4.09083 60.3791C4.34302 59.8686 4.54624 59.4646 4.74089 59.0557C5.07143 58.3591 5.66273 57.6528 5.64681 56.9623C5.63212 56.2988 4.9943 55.645 4.61357 54.9962C3.30773 52.7632 1.99782 50.5319 0.68382 48.3022C0.612815 48.1846 0.552828 48.0585 0.435303 47.8382Z" fill="#A1A1A0"/>
</g>
<path id="Vector_8" d="M82.7828 18.1545L77.7403 23.9622L73.502 17.371L73.3233 17.4077C73.3061 17.6293 73.2743 17.8509 73.2743 18.0725C73.2743 22.9877 73.2633 27.9042 73.2841 32.8195C73.2841 33.3741 73.1164 33.5956 72.574 33.7058C71.5604 33.9139 70.5651 34.2102 69.56 34.4648C69.398 34.4935 69.2345 34.5131 69.0703 34.5236V8.61171C69.0703 7.75476 69.0703 7.75476 69.8905 7.92125C70.8699 8.12569 71.8358 8.34606 72.8115 8.54193C72.9988 8.57625 73.1759 8.65229 73.3298 8.7644C73.4836 8.87651 73.6103 9.02181 73.7003 9.18954C75.1559 11.5474 76.6385 13.8906 78.1075 16.2362C78.214 16.4063 78.3389 16.5643 78.5078 16.803C78.8604 16.421 79.1787 16.0868 79.4872 15.744C80.3442 14.7879 81.1889 13.8183 82.0581 12.8781C82.1891 12.7373 82.5257 12.5978 82.6469 12.6676C85.2178 14.1427 87.4459 15.9889 88.3016 18.9588C89.2026 22.0916 88.3812 24.8657 86.0013 27.0767C84.6816 28.3009 83.1942 29.3525 81.692 30.5534L79.475 26.9114C80.2266 26.3617 80.9967 25.8928 81.6492 25.2954C82.4107 24.6 83.1978 23.8741 83.7463 23.0159C84.9264 21.1722 84.5959 20.4218 83.5969 19.1339C83.3509 18.8168 83.0852 18.5169 82.7828 18.1545Z" fill="#A1A1A0"/>
<path id="Vector_9" d="M51.6663 21.1257C52.8623 22.0953 53.7193 23.1983 54.2751 24.518C55.6144 27.701 54.5101 31.3884 51.5622 33.5859C49.3047 35.2704 46.7694 35.7258 44.0345 35.2337C42.5177 34.9607 41.0045 34.6668 39.4204 34.3681C39.4755 34.0645 39.5085 33.8111 39.5697 33.5638C39.7289 32.9125 39.899 32.2637 40.0692 31.6136C40.3936 30.3808 40.3949 30.3894 41.6264 30.5975C42.7478 30.791 43.8643 31.0223 44.9943 31.1546C46.5356 31.3357 47.9593 30.9648 49.1566 29.9475C50.993 28.389 50.8485 25.8928 48.8701 24.5229C47.7818 23.77 46.5441 23.4518 45.2428 23.4077C44.163 23.3722 43.0796 23.382 41.9998 23.4077C41.5371 23.4187 41.3326 23.2975 41.3522 22.7956C41.3902 21.7978 41.3938 20.7976 41.3791 19.7974C41.3791 19.3873 41.5395 19.2747 41.9215 19.271C43.1028 19.2612 44.294 19.3078 45.4619 19.1682C46.4327 19.0531 47.4525 18.8572 48.318 18.4337C50.7518 17.2327 51.0493 14.2713 48.9767 12.506C47.5664 11.305 45.932 10.9353 44.1214 11.3197C42.8531 11.589 41.5824 11.8486 40.2247 12.1301C39.9358 10.7908 39.6505 9.47114 39.3457 8.05716C40.3251 7.86618 41.253 7.68989 42.1822 7.50136C44.4483 7.0533 46.7118 6.95414 48.9399 7.685C52.1229 8.73048 54.1147 10.868 54.624 14.2199C55.0047 16.721 54.1698 18.834 52.298 20.5393C52.1094 20.7119 51.9209 20.8895 51.6663 21.1257Z" fill="#A1A1A0"/>
<path id="Vector_10" d="M28.0466 12.5782L30.2123 16.0403C29.3982 16.6769 28.6134 17.2878 27.8311 17.9024C27.6549 18.0407 27.4492 18.1619 27.3255 18.3394C27.2227 18.4851 27.1407 18.7336 27.2031 18.8768C27.2507 18.9611 27.3174 19.0331 27.3977 19.0871C27.478 19.1411 27.5699 19.1756 27.6659 19.1878C29.561 19.2417 31.461 19.26 33.3499 19.3102C33.8641 19.3225 33.82 18.998 33.82 18.6626C33.82 15.9901 33.8335 13.3177 33.8066 10.6452C33.8066 10.1298 33.9498 9.89473 34.453 9.74537C35.6172 9.3977 36.7606 8.97901 38.0228 8.55176V9.28629C38.0228 15.8555 38.0228 22.4255 38.0228 28.9963C38.0228 32.0274 35.0063 33.8123 32.3338 32.3788C30.3224 31.3015 28.3012 30.2401 26.2862 29.1701C26.1111 29.0771 25.9446 28.9706 25.7267 28.842L27.9144 25.5366C29.463 26.3642 30.9505 27.1624 32.444 27.9532C33.7539 28.6486 33.8237 28.6033 33.8237 27.1085C33.8237 26.0887 33.798 25.0677 33.8347 24.048C33.8543 23.546 33.6584 23.4187 33.2006 23.4199C31.2418 23.4199 29.2831 23.4077 27.3243 23.3991C25.4023 23.3893 23.6247 22.0133 22.9759 20.035C22.4409 18.4018 23.1583 16.2852 24.6102 15.1907C25.7341 14.3362 26.8652 13.4744 28.0466 12.5782Z" fill="#A1A1A0"/>
<path id="Vector_11" d="M63.4409 10.9549C63.4189 11.3002 63.3846 11.5768 63.3846 11.8535C63.3846 19.4608 63.3875 27.0677 63.3932 34.6742C63.3932 35.2606 63.2989 35.5544 62.6207 35.5765C61.6083 35.6083 60.5983 35.7699 59.5859 35.8446C59.4794 35.8531 59.2957 35.6695 59.2553 35.541C59.1966 35.3549 59.2345 35.137 59.2345 34.9289V11.436C59.2345 10.4775 59.2259 10.4567 58.2441 10.4297C57.408 10.404 56.5718 10.3955 55.7357 10.4114C55.3464 10.4199 55.1823 10.2987 55.1897 9.89352C55.2085 8.87334 55.2085 7.85315 55.1897 6.83297C55.1823 6.42163 55.3611 6.32247 55.7418 6.31635C59.3973 6.25391 63.0137 6.61873 66.608 7.27002C67.0977 7.35939 67.1907 7.57362 67.1822 7.99721C67.165 8.85416 67.1822 9.71112 67.176 10.5681C67.176 11.3026 67.1026 11.3332 66.3485 11.2389C65.4046 11.1239 64.4558 11.0529 63.4409 10.9549Z" fill="#A1A1A0"/>
</g>
</g>
</g>
</svg>
