<svg width="17" height="17" viewBox="0 0 17 17" fill="none" xmlns="http://www.w3.org/2000/svg">
<path d="M12.465 0.00878496C13.6878 -0.067636 14.8935 0.356925 15.8021 1.18906C16.6342 2.09762 17.0588 3.30338 16.9909 4.5346V12.4654C17.0673 13.6966 16.6342 14.9024 15.8106 15.8109C14.902 16.6431 13.6878 17.0676 12.465 16.9912H4.53415C3.30291 17.0676 2.09715 16.6431 1.18859 15.8109C0.356439 14.9024 -0.0681248 13.6966 0.00829675 12.4654V4.5346C-0.0681248 3.30338 0.356439 2.09762 1.18859 1.18906C2.09715 0.356925 3.30291 -0.067636 4.53415 0.00878496H12.465ZM12.2442 3.88927C11.7178 3.36282 10.8686 3.36282 10.3422 3.88927L9.77327 4.46667C9.68836 4.55159 9.68836 4.69594 9.77327 4.78085C9.77327 4.78085 9.78994 4.79741 9.81961 4.8269L10.0285 5.03462C10.1493 5.15483 10.3001 5.30494 10.4515 5.4559L10.965 5.96913C11.0721 6.07675 11.1432 6.14888 11.1489 6.15642C11.2423 6.25832 11.3017 6.39418 11.3017 6.54702C11.3017 6.8527 11.0555 7.10744 10.7413 7.10744C10.5969 7.10744 10.4611 7.048 10.3677 6.9546L8.94962 5.54506C8.88169 5.47713 8.76281 5.47713 8.69488 5.54506L4.64454 9.59537C4.36433 9.87558 4.20299 10.2492 4.1945 10.6483L4.14355 12.6607C4.14355 12.7711 4.17752 12.873 4.25394 12.9494C4.33036 13.0258 4.43226 13.0683 4.54264 13.0683H6.53809C6.94568 13.0683 7.33627 12.9069 7.63347 12.6182L13.3481 6.88667C13.8661 6.36021 13.8661 5.51109 13.3481 4.99313L12.2442 3.88927Z" fill="#396939"/>
</svg>
