<svg width="16" height="17" viewBox="0 0 16 17" fill="none" xmlns="http://www.w3.org/2000/svg">
<path fill-rule="evenodd" clip-rule="evenodd" d="M4 1.13037H12C13.6569 1.13037 15 2.47352 15 4.13037V12.1304C15 13.7872 13.6569 15.1304 12 15.1304H4C2.34315 15.1304 1 13.7872 1 12.1304V4.13037C1 2.47352 2.34315 1.13037 4 1.13037ZM12 0.130371H4C1.79086 0.130371 0 1.92123 0 4.13037V12.1304C0 14.3395 1.79086 16.1304 4 16.1304H12C14.2091 16.1304 16 14.3395 16 12.1304V4.13037C16 1.92123 14.2091 0.130371 12 0.130371ZM12.7482 5.21198C13.0982 5.21198 13.1772 5.39264 13.0982 5.64105C12.9748 6.21036 11.9505 7.72054 11.6332 8.18829C11.5729 8.27717 11.5382 8.32841 11.54 8.32841C11.4158 8.53166 11.3706 8.62199 11.54 8.84782C11.6012 8.93131 11.731 9.05871 11.8794 9.20431C12.032 9.35407 12.2043 9.52308 12.3417 9.68338C12.8385 10.248 13.2224 10.7222 13.324 11.0496C13.4144 11.3771 13.2563 11.5465 12.9175 11.5465H11.7545C11.4463 11.5465 11.2874 11.3695 10.9488 10.9922C10.8037 10.8305 10.6255 10.6319 10.3883 10.3947C9.69948 9.72855 9.39461 9.63822 9.22524 9.63822C8.98812 9.63822 8.92037 9.69468 8.92037 10.0334V11.0835C8.92037 11.3658 8.83004 11.5352 8.0848 11.5352C6.85404 11.5352 5.48777 10.7899 4.528 9.4011C3.0827 7.36864 2.6875 5.833 2.6875 5.52813C2.6875 5.35876 2.74396 5.20068 3.0827 5.20068H4.25701C4.55059 5.20068 4.6635 5.32489 4.77641 5.65234C5.35228 7.31218 6.31205 8.76878 6.70725 8.76878C6.85404 8.76878 6.92179 8.70103 6.92179 8.32841V6.61211C6.89391 6.12427 6.72409 5.91172 6.59816 5.75411C6.52006 5.65636 6.45884 5.57973 6.45884 5.47168C6.45884 5.33618 6.57175 5.20068 6.75241 5.20068H8.58162C8.83004 5.20068 8.92037 5.33618 8.92037 5.62976V7.9445C8.92037 8.19291 9.02199 8.28325 9.10103 8.28325C9.24782 8.28325 9.37203 8.19291 9.64302 7.92192C10.4786 6.98473 11.077 5.53943 11.077 5.53943C11.1561 5.37006 11.2916 5.21198 11.5851 5.21198H12.7482Z" fill="white"/>
</svg>
