<svg width="24" height="24" viewBox="0 0 24 24" fill="none" xmlns="http://www.w3.org/2000/svg">
<path d="M5 15C2.79 15 1 16.79 1 19C1 19.75 1.21 20.46 1.58 21.06C2.27 22.22 3.54 23 5 23C6.46 23 7.73 22.22 8.42 21.06C8.79 20.46 9 19.75 9 19C9 16.79 7.21 15 5 15ZM6.49 19.73H5.75V20.51C5.75 20.92 5.41 21.26 5 21.26C4.59 21.26 4.25 20.92 4.25 20.51V19.73H3.51C3.1 19.73 2.76 19.39 2.76 18.98C2.76 18.57 3.1 18.23 3.51 18.23H4.25V17.52C4.25 17.11 4.59 16.77 5 16.77C5.41 16.77 5.75 17.11 5.75 17.52V18.23H6.49C6.9 18.23 7.24 18.57 7.24 18.98C7.24 19.39 6.91 19.73 6.49 19.73Z" fill="#396939"/>
<path d="M21.5 12.5H19C17.9 12.5 17 13.4 17 14.5C17 15.6 17.9 16.5 19 16.5H21.5C21.78 16.5 22 16.28 22 16V13C22 12.72 21.78 12.5 21.5 12.5Z" fill="#396939"/>
<path d="M16.53 5.39967C16.83 5.68967 16.58 6.13967 16.16 6.13967L7.87996 6.12967C7.39996 6.12967 7.15996 5.54967 7.49996 5.20967L9.24996 3.44967C10.73 1.97967 13.12 1.97967 14.6 3.44967L16.49 5.35967C16.5 5.36967 16.52 5.38967 16.53 5.39967Z" fill="#396939"/>
<path d="M21.8706 18.66C21.2606 20.72 19.5006 22 17.1006 22H10.6006C10.2106 22 9.9606 21.57 10.1206 21.21C10.4206 20.51 10.6106 19.72 10.6106 19C10.6106 15.97 8.1406 13.5 5.1106 13.5C4.3506 13.5 3.6106 13.66 2.9306 13.96C2.5606 14.12 2.1106 13.87 2.1106 13.47V12C2.1106 9.28 3.7506 7.38 6.3006 7.06C6.5506 7.02 6.8206 7 7.1006 7H17.1006C17.3606 7 17.6106 7.01 17.8506 7.05C19.8706 7.28 21.3306 8.51 21.8706 10.34C21.9706 10.67 21.7306 11 21.3906 11H19.1006C16.9306 11 15.2106 12.98 15.6806 15.23C16.0106 16.87 17.5306 18 19.2006 18H21.3906C21.7406 18 21.9706 18.34 21.8706 18.66Z" fill="#396939"/>
</svg>
