<svg width="18" height="17" viewBox="0 0 18 17" fill="none" xmlns="http://www.w3.org/2000/svg">
<path d="M12.6912 0.8125C15.6371 0.8125 17.3758 2.50767 17.3758 5.40945H13.7617V5.43906C12.0844 5.43906 10.7247 6.76475 10.7247 8.40007C10.7247 10.0354 12.0844 11.3611 13.7617 11.3611H17.3758V11.6276C17.3758 14.4923 15.6371 16.1875 12.6912 16.1875H4.97711C2.03118 16.1875 0.29248 14.4923 0.29248 11.6276V5.37244C0.29248 2.50767 2.03118 0.8125 4.97711 0.8125H12.6912ZM16.738 6.68269C17.0903 6.68269 17.3758 6.96108 17.3758 7.3045V9.46603C17.3717 9.80777 17.0886 10.0838 16.738 10.0878H13.8301C12.9809 10.099 12.2384 9.53215 12.0458 8.72578C11.9494 8.22521 12.0848 7.70867 12.4157 7.3146C12.7467 6.92053 13.2394 6.68923 13.7617 6.68269H16.738ZM14.1717 7.68202H13.8908C13.7183 7.68005 13.5522 7.74546 13.4296 7.86368C13.3069 7.98189 13.2379 8.14307 13.2379 8.31124C13.2378 8.66405 13.529 8.9512 13.8908 8.95525H14.1717C14.5324 8.95525 14.8247 8.67023 14.8247 8.31864C14.8247 7.96705 14.5324 7.68202 14.1717 7.68202ZM9.16063 4.13622H4.33933C3.98166 4.1362 3.69053 4.41674 3.68637 4.76544C3.68637 5.11825 3.97749 5.4054 4.33933 5.40945H9.16063C9.52125 5.40945 9.81359 5.12443 9.81359 4.77284C9.81359 4.42125 9.52125 4.13622 9.16063 4.13622Z" fill="#396939"/>
</svg>
