<?xml version="1.0" encoding="UTF-8"?>
<svg id="Layer_1" data-name="Layer 1" xmlns="http://www.w3.org/2000/svg" viewBox="0 0 477.8 1185.24">
  <defs>
    <style>
      .cls-1 {
        fill: #fff;
      }
    </style>
  </defs>
  <path d="m477.79,431.54l-.03,6.63h-.05v747.07H.09V436.46l-.08-4.92c-.03-6.76.02-13.35.15-19.6.12-6.62.32-13.22.6-19.59.29-6.74.64-13.33,1.06-19.59.43-6.47.94-13.06,1.53-19.59.57-6.42,1.23-13.01,1.98-19.58.77-6.75,1.6-13.34,2.46-19.59.9-6.52,1.88-13.12,2.93-19.58,1.1-6.79,2.24-13.38,3.4-19.59,1.19-6.38,2.49-12.97,3.88-19.58,1.35-6.39,2.82-12.98,4.38-19.6,1.59-6.7,3.23-13.29,4.88-19.59,1.71-6.54,3.51-13.13,5.37-19.58,1.95-6.77,3.93-13.36,5.9-19.6,2.13-6.78,4.29-13.37,6.42-19.58,2.27-6.65,4.62-13.25,6.97-19.59,2.42-6.57,4.95-13.16,7.52-19.59,2.64-6.62,5.37-13.21,8.11-19.59,2.74-6.42,5.67-13.02,8.69-19.59,4.04-8.84,8.39-17.88,12.92-26.85l1.85-3.66h32.48v8.88h36.84v-21.69h-15.09v-15.2h8.88v-5.22h-8.88V0h187.32v15.2h-8.88v5.22h8.88v15.2h-15.09v21.69h36.84v-8.88h32.48l1.84,3.66c4.53,8.95,8.88,17.99,12.94,26.87,3.01,6.55,5.94,13.15,8.69,19.59,2.73,6.36,5.46,12.95,8.1,19.58,2.57,6.42,5.1,13.01,7.52,19.59,2.35,6.33,4.7,12.93,6.97,19.59,2.12,6.18,4.28,12.77,6.42,19.57,1.96,6.23,3.95,12.82,5.9,19.59,1.86,6.46,3.66,13.05,5.37,19.6,1.66,6.33,3.3,12.92,4.88,19.58,1.56,6.6,3.03,13.19,4.38,19.6,1.39,6.62,2.69,13.21,3.88,19.59,1.16,6.24,2.31,12.83,3.4,19.58,1.05,6.49,2.03,13.08,2.93,19.59.86,6.24,1.69,12.83,2.46,19.59.74,6.56,1.41,13.15,1.98,19.59.58,6.51,1.1,13.1,1.52,19.58.43,6.3.78,12.89,1.07,19.59.28,6.36.48,12.95.6,19.58.13,6.25.18,12.84.15,19.6Z"/>
  <path class="cls-1" d="m477.64,411.94c-.12-6.63-.32-13.22-.6-19.58-.29-6.7-.64-13.29-1.07-19.59-.42-6.48-.94-13.07-1.52-19.58-.57-6.44-1.24-13.03-1.98-19.59-.77-6.76-1.6-13.35-2.46-19.59-.9-6.51-1.88-13.1-2.93-19.59-1.09-6.75-2.24-13.34-3.4-19.58-1.19-6.38-2.49-12.97-3.88-19.59-1.35-6.41-2.82-13-4.38-19.6-1.58-6.66-3.22-13.25-4.88-19.58-1.71-6.55-3.51-13.14-5.37-19.6-1.95-6.77-3.94-13.36-5.9-19.59-2.14-6.8-4.3-13.39-6.42-19.57-2.27-6.66-4.62-13.26-6.97-19.59-2.42-6.58-4.95-13.17-7.52-19.59-2.64-6.63-5.37-13.22-8.1-19.58-2.75-6.44-5.68-13.04-8.69-19.59-4.06-8.88-8.41-17.92-12.94-26.87l-1.84-3.66h-32.48v8.88h-36.84v-21.69h15.09v-15.2h-8.88v-5.22h8.88V0h-187.32v15.2h0s8.88,0,8.88,0v5.22h-8.88v15.2h0s15.09,0,15.09,0v21.69h-36.84v-8.88h-32.48l-1.85,3.66c-4.53,8.97-8.88,18.01-12.92,26.85-3.02,6.57-5.95,13.17-8.69,19.59-2.74,6.38-5.47,12.97-8.11,19.59-2.57,6.43-5.1,13.02-7.52,19.59-2.35,6.34-4.7,12.94-6.97,19.59-2.13,6.21-4.29,12.8-6.42,19.58-1.97,6.24-3.95,12.83-5.9,19.6-1.86,6.45-3.66,13.04-5.37,19.58-1.65,6.3-3.29,12.89-4.88,19.59-1.56,6.62-3.03,13.21-4.38,19.6-1.39,6.61-2.69,13.2-3.88,19.58-1.16,6.21-2.3,12.8-3.4,19.59-1.05,6.46-2.03,13.06-2.93,19.58-.86,6.25-1.69,12.84-2.46,19.59-.75,6.57-1.41,13.16-1.98,19.58-.59,6.53-1.1,13.12-1.53,19.59-.42,6.26-.77,12.85-1.06,19.59-.28,6.37-.48,12.97-.6,19.59-.13,6.25-.18,12.84-.15,19.6l.08,4.92v748.78h477.62V438.17h.05l.03-6.63c.03-6.76-.02-13.35-.15-19.6Zm-326.19,730.24v14.99h-18.64v-14.99h18.64Zm-18.64-23.88v-14.99h18.64v14.99h-18.64Zm0-38.87v-14.99h18.64v14.99h-18.64Zm0-38.86v-14.99h18.64v14.99h-18.64Zm0-38.87v-19.06h18.64v19.06h-18.64Zm0-26.16v-19.94h18.64v19.94h-18.64Zm0-27.05v-19.94h18.64v19.94h-18.64Zm0-27.05v-19.94h18.64v19.94h-18.64Zm0-27.05v-19.94h18.64v19.94h-18.64Zm0-27.05v-19.94h18.64v19.94h-18.64Zm0-27.05v-19.94h18.64v19.94h-18.64Zm0-27.05v-19.94h18.64v19.94h-18.64Zm0-27.05v-19.94h18.64v19.94h-18.64Zm0-27.05v-19.94h18.64v19.94h-18.64Zm0-27.05v-19.94h18.64v19.94h-18.64Zm0-27.05v-19.94h18.64v19.94h-18.64Zm0-27.05v-19.94h18.64v19.94h-18.64Zm0-27.05v-19.94h18.64v19.94h-18.64Zm0-27.05v-19.94h18.64v19.94h-18.64Zm0-27.05v-19.94h18.64v19.94h-18.64Zm0-27.05v-19.94h18.64v19.94h-18.64Zm0-27.05v-19.94h18.64v19.94h-18.64Zm0-27.05v-19.94h18.64v19.94h-18.64Zm0-27.05v-19.94h18.64v19.94h-18.64Zm0-27.05v-19.06h18.64v19.06h-18.64Zm0-42.93v-14.99h18.64v14.99h-18.64Zm18.64-53.86v14.99h-18.64v-14.99h18.64Zm-18.64-23.87v-14.99h18.64v14.99h-18.64Zm0-38.87v-14.99h18.64v14.99h-18.64Zm0-38.87v-14.99h18.64v14.99h-18.64Zm0-38.87v-14.99h18.64v14.99h-18.64Zm0-38.87v-14.98h18.64v14.98h-18.64Zm0-38.86v-14.99h18.64v14.99h-18.64Zm18.64-51.65v12.78h-18.64v-12.78h18.64Zm-69.58,3.9c2.08-4.78,4.25-9.62,6.47-14.45.08-.18.17-.36.25-.54h23.8v14.99h-30.52Zm-15.78,38.87c1.87-4.96,3.78-9.9,5.72-14.75.03-.08.06-.16.09-.24h40.49v14.99h-46.3Zm-13.52,38.86c1.65-5.16,3.31-10.18,4.95-14.98h54.87v14.98h-59.82Zm59.82,23.87v14.99H41.17c1.34-5.03,2.73-10.05,4.14-14.99h67.08Zm-80.59,53.86c1.06-4.93,2.19-9.95,3.38-14.99h77.21v14.99H31.8Zm-7.4,38.87c.86-5.16,1.74-10.19,2.63-14.99h85.36v14.99H24.4Zm-5.49,38.87c.6-5.14,1.24-10.17,1.9-14.99h91.58v14.99H18.91Zm-3.61,38.86c.35-4.98.74-9.98,1.18-14.99h95.91v14.99H15.3Zm-1.9,777.3v-14.99h98.99v14.99H13.4Zm0-38.87v-14.99h98.99v14.99H13.4Zm0-38.87v-14.99h98.99v14.99H13.4Zm0-38.86v-14.99h98.99v14.99H13.4Zm0-38.87v-19.52h98.99v19.52H13.4Zm0-26.62v-19.9h98.99v19.9H13.4Zm0-27v-19.9h98.99v19.9H13.4Zm0-27v-19.9h98.99v19.9H13.4Zm0-27v-19.9h98.99v19.9H13.4Zm0-27v-19.9h98.99v19.9H13.4Zm0-27v-19.9h98.99v19.9H13.4Zm0-27v-19.9h98.99v19.9H13.4Zm0-27v-19.9h98.99v19.9H13.4Zm0-27v-19.9h98.99v19.9H13.4Zm0-27v-19.9h98.99v19.9H13.4Zm0-27v-19.9h98.99v19.9H13.4Zm0-27v-19.9h98.99v19.9H13.4Zm0-27v-19.9h98.99v19.9H13.4Zm0-27v-19.9h98.99v19.9H13.4Zm0-27v-19.9h98.99v19.9H13.4Zm0-27v-19.9h98.99v19.9H13.4Zm0-27v-19.9h98.99v19.9H13.4Zm0-27v-19.9h98.99v19.9H13.4Zm0-27v-19.9h98.99v19.9H13.4Zm0-27v-19.51h98.99v19.51H13.4Zm.12-43.39c.11-5.06.26-10.08.46-14.99h98.41v14.99H13.52ZM319.24,20.42h-160.68v-5.22h160.68v5.22Zm25.75,1121.76v14.99h-18.65v-14.99h18.65Zm-18.65-23.88v-14.99h18.65v14.99h-18.65Zm0-38.87v-14.99h18.65v14.99h-18.65Zm0-38.86v-14.99h18.65v14.99h-18.65Zm0-38.87v-19.06h18.65v19.06h-18.65Zm0-26.16v-19.94h18.65v19.94h-18.65Zm0-27.05v-19.94h18.65v19.94h-18.65Zm0-27.05v-19.94h18.65v19.94h-18.65Zm0-27.05v-19.94h18.65v19.94h-18.65Zm0-27.05v-19.94h18.65v19.94h-18.65Zm0-27.05v-19.94h18.65v19.94h-18.65Zm0-27.05v-19.94h18.65v19.94h-18.65Zm0-27.05v-19.94h18.65v19.94h-18.65Zm0-27.05v-19.94h18.65v19.94h-18.65Zm0-27.05v-19.94h18.65v19.94h-18.65Zm0-27.05v-19.94h18.65v19.94h-18.65Zm0-27.05v-19.94h18.65v19.94h-18.65Zm0-27.05v-19.94h18.65v19.94h-18.65Zm0-27.05v-19.94h18.65v19.94h-18.65Zm0-27.05v-19.94h18.65v19.94h-18.65Zm0-27.05v-19.94h18.65v19.94h-18.65Zm0-27.05v-19.94h18.65v19.94h-18.65Zm0-27.05v-19.94h18.65v19.94h-18.65Zm0-27.05v-19.94h18.65v19.94h-18.65Zm0-27.05v-19.06h18.65v19.06h-18.65Zm0-42.93v-14.99h18.65v14.99h-18.65Zm18.65-53.86v14.99h-18.65v-14.99h18.65Zm-18.65-23.87v-14.99h18.65v14.99h-18.65Zm0-38.87v-14.99h18.65v14.99h-18.65Zm0-38.87v-14.99h18.65v14.99h-18.65Zm0-38.87v-14.99h18.65v14.99h-18.65Zm0-38.87v-14.98h18.65v14.98h-18.65Zm0-38.86v-14.99h18.65v14.99h-18.65Zm18.65-51.65v12.78h-18.65v-12.78h18.65Zm-171.32,77.01c.17,1.2.34,2.4.52,3.61.02.17.05.34.07.51.02.16.04.32.07.49h-2.46v-6.11h1.58c.05.34.1.69.15,1.03.02.15.04.31.07.46Zm4.26,28.49c.32,1.99.64,3.98.97,6,.06.34.11.67.16,1.01.15.92.31,1.87.47,2.8.28,1.72.56,3.43.86,5.17h-8.53v-14.99h6.06Zm8.34,46.62c.02.08.03.16.05.24.06.31.13.61.18.91.42,2.04.83,4.06,1.25,6.09h-15.88v-14.99h12.86c.4,2.06.81,4.13,1.23,6.19.1.52.2,1.04.31,1.56Zm10.28,45.33c.03.11.06.22.08.33.04.15.07.3.11.46h-24.87v-14.99h21.2c.07.3.15.61.22.92.46,1.92.92,3.86,1.4,5.81.08.32.15.63.23.95.16.65.33,1.31.49,1.96.38,1.52.75,3.04,1.14,4.57Zm7.19,26.71c.09.33.19.66.28.99.03.11.06.22.09.33.4,1.4.81,2.81,1.22,4.24.12.41.25.84.37,1.26.32,1.06.63,2.12.95,3.2.17.57.34,1.14.51,1.72.11.35.21.71.33,1.06.01.05.03.09.04.14h-35.66v-14.99h31.28c.13.48.27.96.41,1.44.06.2.12.41.17.61Zm16.01,50.55l.03.08c.13.39.26.78.4,1.17h-48.31v-14.99h43.19c.35,1.04.7,2.09,1.05,3.14.03.1.07.2.1.3.49,1.46.99,2.94,1.5,4.43.13.36.25.73.38,1.09.38,1.1.76,2.22,1.15,3.34.16.45.32.9.48,1.35.01.03.02.06.03.09Zm-47.88,40.12v-14.99h57.02c.11.28.22.57.33.85.74,1.95,1.49,3.9,2.25,5.84.14.36.28.72.42,1.08.86,2.2,1.74,4.41,2.63,6.64.08.19.15.39.23.58h-62.88Zm73.55-5.99c.09-.24.19-.48.29-.73.05-.12.1-.24.14-.36.57-1.46,1.14-2.91,1.7-4.37.12-.31.24-.62.36-.94.33-.87.67-1.74,1-2.61h57.03v14.99h-62.89c.17-.42.33-.83.5-1.25.17-.43.34-.86.51-1.28.25-.64.5-1.27.75-1.9.2-.52.41-1.04.62-1.56Zm14.67-40.03c.49-1.44.98-2.88,1.46-4.31.11-.32.21-.64.32-.96.29-.86.57-1.72.86-2.57h43.21v14.99h-48.32c.14-.4.27-.79.41-1.18.18-.51.36-1.03.54-1.54.37-1.08.74-2.15,1.11-3.21.1-.3.2-.6.3-.9.04-.11.07-.21.11-.32Zm11.03-34.53c.16-.53.31-1.05.47-1.58.2-.66.39-1.33.59-1.99.04-.14.08-.28.12-.42.05-.16.1-.32.14-.48.15-.52.3-1.03.45-1.55.28-.96.56-1.93.83-2.87.08-.29.16-.58.25-.87.1-.34.19-.67.29-1.01.13-.47.27-.94.4-1.4h31.29v14.99h-35.67c.13-.44.26-.87.39-1.31.1-.33.2-.66.3-.99.05-.17.11-.35.16-.52Zm10.11-36.71c.56-2.22,1.12-4.44,1.66-6.65.08-.31.15-.61.22-.92.28-1.14.55-2.27.82-3.4.19-.79.39-1.59.58-2.39.07-.32.15-.65.23-.96h21.22v14.99h-24.89c.01-.05.03-.11.04-.17.04-.17.08-.34.13-.51Zm17.51-85.04c.31-1.93.62-3.84.93-5.74.03-.16.05-.32.08-.48.04-.27.09-.53.13-.79h6.08v14.99h-8.55c.05-.3.1-.6.15-.89.06-.39.13-.76.19-1.15.34-1.99.67-3.98.99-5.94Zm4.88-31.87c.05-.35.1-.7.15-1.05.15-1.03.3-2.07.45-3.09.04-.32.09-.65.14-.98h1.6v6.11h-2.48c.02-.15.04-.3.06-.45.03-.18.05-.36.08-.54Zm-12.08,71.5c.52-2.59,1.03-5.18,1.54-7.77h12.88v14.99h-15.9c.42-2,.83-4.02,1.24-6.04.06-.27.11-.54.17-.81.02-.12.05-.24.08-.37Zm-119.66,901.11v-14.99h134.06v14.99h-134.06Zm0-38.87v-14.99h134.06v14.99h-134.06Zm0-38.87v-14.99h134.06v14.99h-134.06Zm0-38.96v-14.88h134.06v14.88h-134.06Zm0-38.76v-19.52h134.06v19.52h-134.06Zm0-26.62v-19.9h134.06v19.9h-134.06Zm0-27v-19.9h134.06v19.9h-134.06Zm0-27v-19.9h134.06v19.9h-134.06Zm0-27v-19.9h134.06v19.9h-134.06Zm0-27v-19.9h134.06v19.9h-134.06Zm0-27v-19.9h134.06v19.9h-134.06Zm0-27v-19.9h134.06v19.9h-134.06Zm0-27v-19.9h134.06v19.9h-134.06Zm0-27v-19.9h134.07v19.9h-134.07Zm0-27v-19.9h134.07v19.9h-134.07Zm0-27v-19.9h134.07v19.9h-134.07Zm0-27v-19.9h134.07v19.9h-134.07Zm0-27v-19.9h134.07v19.9h-134.07Zm0-27v-19.9h134.07v19.9h-134.07Zm0-27v-19.9h134.07v19.9h-134.07Zm0-27v-19.9h134.07v19.9h-134.07Zm0-27v-19.9h134.07v19.9h-134.07Zm0-27v-19.9h134.07v19.9h-134.07Zm0-27v-19.9h134.07v19.9h-134.07Zm0-27v-19.51h134.07v19.51h-134.07ZM313.03,35.62v5.72h-148.26v-5.72h148.26Zm52.38,374.24v-14.99h98.4c.2,4.91.36,9.93.46,14.99h-98.86Zm0,738.43v-14.99h98.98v14.99h-98.98Zm0-38.87v-14.99h98.98v14.99h-98.98Zm0-38.87v-14.99h98.98v14.99h-98.98Zm0-38.86v-14.99h98.98v14.99h-98.98Zm0-38.87v-19.52h98.98v19.52h-98.98Zm0-26.62v-19.9h98.98v19.9h-98.98Zm0-27v-19.9h98.98v19.9h-98.98Zm0-27v-19.9h98.98v19.9h-98.98Zm0-27v-19.9h98.98v19.9h-98.98Zm0-27v-19.9h98.98v19.9h-98.98Zm0-27v-19.9h98.98v19.9h-98.98Zm0-27v-19.9h98.98v19.9h-98.98Zm0-27v-19.9h98.98v19.9h-98.98Zm0-27v-19.9h98.98v19.9h-98.98Zm0-27v-19.9h98.98v19.9h-98.98Zm0-27v-19.9h98.98v19.9h-98.98Zm0-27v-19.9h98.98v19.9h-98.98Zm0-27v-19.9h98.98v19.9h-98.98Zm0-27v-19.9h98.98v19.9h-98.98Zm0-27v-19.9h98.98v19.9h-98.98Zm0-27v-19.9h98.98v19.9h-98.98Zm0-27v-19.9h98.98v19.9h-98.98Zm0-27v-19.9h98.98v19.9h-98.98Zm0-27v-19.9h98.98v19.9h-98.98Zm0-27v-19.51h98.98v19.51h-98.98Zm0-82.26v-14.99h95.91c.44,5,.83,10.02,1.18,14.99h-97.09Zm0-38.86v-14.99h91.58c.66,4.83,1.3,9.85,1.9,14.99h-93.48Zm0-38.87v-14.99h85.36c.89,4.82,1.77,9.84,2.62,14.99h-87.98Zm0-38.87v-14.99h77.21c1.18,5.04,2.32,10.05,3.38,14.99h-80.59Zm0-77.73v-14.98h54.86c1.64,4.77,3.3,9.8,4.96,14.98h-59.82Zm71.22,38.87h-71.22v-14.99h67.07c1.42,4.95,2.81,9.97,4.15,14.99Zm-71.22-77.72v-14.99h40.48c.04.08.07.16.1.24,1.94,4.85,3.85,9.79,5.71,14.75h-46.29Zm0-38.87v-14.99h23.8c.08.19.17.37.25.56,2.22,4.82,4.38,9.64,6.47,14.43h-30.52Z"/>
</svg>